<?xml version="1.0" encoding="UTF-8"?>
<svg width="405px" height="109px" viewBox="0 0 405 109" version="1.1" xmlns="http://www.w3.org/2000/svg" xmlns:xlink="http://www.w3.org/1999/xlink">
    <!-- Generator: Sketch 52.6 (67491) - http://www.bohemiancoding.com/sketch -->
    <title>Logo-Slogan-Color</title>
    <desc>Created with Sketch.</desc>
    <g id="Logo-Slogan-Color" stroke="none" stroke-width="1" fill="none" fill-rule="evenodd">
        <path d="M63.953125,103 L62.9179688,99.6015625 L57.7128906,99.6015625 L56.6777344,103 L53.4160156,103 L58.4550781,88.6640625 L62.15625,88.6640625 L67.2148438,103 L63.953125,103 Z M62.1953125,97.0625 C61.2382765,93.9830575 60.6995449,92.2415385 60.5791016,91.8378906 C60.4586583,91.4342428 60.3723961,91.1152355 60.3203125,90.8808594 C60.1054677,91.7141969 59.4902395,93.7747231 58.4746094,97.0625 L62.1953125,97.0625 Z M80.4960938,103 L77.0585938,103 L73.3183594,96.984375 L72.0390625,97.9023438 L72.0390625,103 L69.0117188,103 L69.0117188,88.7226562 L72.0390625,88.7226562 L72.0390625,95.2558594 L73.2304688,93.5761719 L77.0976562,88.7226562 L80.4570312,88.7226562 L75.4765625,95.0410156 L80.4960938,103 Z M91.0332031,103 L89.9980469,99.6015625 L84.7929688,99.6015625 L83.7578125,103 L80.4960938,103 L85.5351562,88.6640625 L89.2363281,88.6640625 L94.2949219,103 L91.0332031,103 Z M89.2753906,97.0625 C88.3183546,93.9830575 87.779623,92.2415385 87.6591797,91.8378906 C87.5387364,91.4342428 87.4524742,91.1152355 87.4003906,90.8808594 C87.1855458,91.7141969 86.5703176,93.7747231 85.5546875,97.0625 L89.2753906,97.0625 Z M101.599609,103 L98.5722656,103 L98.5722656,91.2421875 L94.6953125,91.2421875 L94.6953125,88.7226562 L105.476562,88.7226562 L105.476562,91.2421875 L101.599609,91.2421875 L101.599609,103 Z M115.896484,103 L107.673828,103 L107.673828,88.7226562 L115.896484,88.7226562 L115.896484,91.203125 L110.701172,91.203125 L110.701172,94.3378906 L115.535156,94.3378906 L115.535156,96.8183594 L110.701172,96.8183594 L110.701172,100.5 L115.896484,100.5 L115.896484,103 Z M127.097656,103 L118.875,103 L118.875,88.7226562 L127.097656,88.7226562 L127.097656,91.203125 L121.902344,91.203125 L121.902344,94.3378906 L126.736328,94.3378906 L126.736328,96.8183594 L121.902344,96.8183594 L121.902344,100.5 L127.097656,100.5 L127.097656,103 Z M136.121094,103 L132.683594,91.7988281 L132.595703,91.7988281 C132.719402,94.0774854 132.78125,95.5976524 132.78125,96.359375 L132.78125,103 L130.076172,103 L130.076172,88.7226562 L134.197266,88.7226562 L137.576172,99.640625 L137.634766,99.640625 L141.21875,88.7226562 L145.339844,88.7226562 L145.339844,103 L142.517578,103 L142.517578,96.2421875 C142.517578,95.9231755 142.522461,95.5553406 142.532227,95.1386719 C142.541992,94.7220031 142.585937,93.6152434 142.664062,91.8183594 L142.576172,91.8183594 L138.894531,103 L136.121094,103 Z M148.933594,103 L148.933594,88.7226562 L151.960938,88.7226562 L151.960938,103 L148.933594,103 Z M163.982422,99.0351562 C163.982422,100.324225 163.518559,101.33984 162.59082,102.082031 C161.663081,102.824222 160.372404,103.195312 158.71875,103.195312 C157.195305,103.195312 155.847662,102.908857 154.675781,102.335938 L154.675781,99.5234375 C155.639328,99.9531271 156.454749,100.255858 157.12207,100.431641 C157.789391,100.607423 158.399737,100.695312 158.953125,100.695312 C159.617191,100.695312 160.126626,100.568361 160.481445,100.314453 C160.836265,100.060546 161.013672,99.6829452 161.013672,99.1816406 C161.013672,98.9016913 160.935548,98.6526704 160.779297,98.4345703 C160.623046,98.2164703 160.393556,98.0065114 160.09082,97.8046875 C159.788084,97.6028636 159.171229,97.2806012 158.240234,96.8378906 C157.367834,96.4277323 156.713544,96.0338561 156.277344,95.65625 C155.841144,95.2786439 155.49284,94.8391952 155.232422,94.3378906 C154.972004,93.836586 154.841797,93.2506544 154.841797,92.5800781 C154.841797,91.317051 155.269852,90.3242224 156.125977,89.6015625 C156.982101,88.8789026 158.165357,88.5175781 159.675781,88.5175781 C160.417972,88.5175781 161.125973,88.6054679 161.799805,88.78125 C162.473636,88.9570321 163.178382,89.2044255 163.914062,89.5234375 L162.9375,91.8769531 C162.175777,91.5644516 161.545901,91.3463548 161.047852,91.2226562 C160.549802,91.0989577 160.059898,91.0371094 159.578125,91.0371094 C159.005205,91.0371094 158.565757,91.1705716 158.259766,91.4375 C157.953775,91.7044284 157.800781,92.0527322 157.800781,92.4824219 C157.800781,92.7493503 157.86263,92.9820954 157.986328,93.1806641 C158.110027,93.3792328 158.306965,93.5712881 158.577148,93.7568359 C158.847332,93.9423837 159.486974,94.2760393 160.496094,94.7578125 C161.830736,95.3958365 162.74544,96.0354786 163.240234,96.6767578 C163.735029,97.3180371 163.982422,98.104162 163.982422,99.0351562 Z M174.792969,103 L166.570312,103 L166.570312,88.7226562 L174.792969,88.7226562 L174.792969,91.203125 L169.597656,91.203125 L169.597656,94.3378906 L174.431641,94.3378906 L174.431641,96.8183594 L169.597656,96.8183594 L169.597656,100.5 L174.792969,100.5 L174.792969,103 Z M190.4375,103 L186.589844,103 L180.378906,92.1992188 L180.291016,92.1992188 C180.414714,94.1067804 180.476562,95.4674438 180.476562,96.28125 L180.476562,103 L177.771484,103 L177.771484,88.7226562 L181.589844,88.7226562 L187.791016,99.4160156 L187.859375,99.4160156 C187.761718,97.5605376 187.712891,96.2487018 187.712891,95.4804688 L187.712891,88.7226562 L190.4375,88.7226562 L190.4375,103 Z M207.966797,103 L206.931641,99.6015625 L201.726562,99.6015625 L200.691406,103 L197.429688,103 L202.46875,88.6640625 L206.169922,88.6640625 L211.228516,103 L207.966797,103 Z M206.208984,97.0625 C205.251948,93.9830575 204.713217,92.2415385 204.592773,91.8378906 C204.47233,91.4342428 204.386068,91.1152355 204.333984,90.8808594 C204.11914,91.7141969 203.503911,93.7747231 202.488281,97.0625 L206.208984,97.0625 Z M218.533203,103 L215.505859,103 L215.505859,91.2421875 L211.628906,91.2421875 L211.628906,88.7226562 L222.410156,88.7226562 L222.410156,91.2421875 L218.533203,91.2421875 L218.533203,103 Z M236.091797,103 L232.654297,103 L228.914062,96.984375 L227.634766,97.9023438 L227.634766,103 L224.607422,103 L224.607422,88.7226562 L227.634766,88.7226562 L227.634766,95.2558594 L228.826172,93.5761719 L232.693359,88.7226562 L236.052734,88.7226562 L231.072266,95.0410156 L236.091797,103 Z M237.234375,101.603516 C237.234375,101.056638 237.380858,100.643231 237.673828,100.363281 C237.966798,100.083332 238.393226,99.9433594 238.953125,99.9433594 C239.493492,99.9433594 239.911782,100.086587 240.208008,100.373047 C240.504233,100.659507 240.652344,101.069659 240.652344,101.603516 C240.652344,102.117841 240.502606,102.52311 240.203125,102.819336 C239.903644,103.115561 239.486982,103.263672 238.953125,103.263672 C238.406247,103.263672 237.983074,103.118817 237.683594,102.829102 C237.384113,102.539387 237.234375,102.130862 237.234375,101.603516 Z M237.234375,93.5371094 C237.234375,92.9902316 237.380858,92.5768243 237.673828,92.296875 C237.966798,92.0169257 238.393226,91.8769531 238.953125,91.8769531 C239.493492,91.8769531 239.911782,92.0201809 240.208008,92.3066406 C240.504233,92.5931004 240.652344,93.0032525 240.652344,93.5371094 C240.652344,94.0644558 240.500978,94.4729803 240.198242,94.7626953 C239.895506,95.0524103 239.480471,95.1972656 238.953125,95.1972656 C238.406247,95.1972656 237.983074,95.0540379 237.683594,94.7675781 C237.384113,94.4811184 237.234375,94.0709662 237.234375,93.5371094 Z M256.257812,103 L252.410156,103 L246.199219,92.1992188 L246.111328,92.1992188 C246.235027,94.1067804 246.296875,95.4674438 246.296875,96.28125 L246.296875,103 L243.591797,103 L243.591797,88.7226562 L247.410156,88.7226562 L253.611328,99.4160156 L253.679688,99.4160156 C253.582031,97.5605376 253.533203,96.2487018 253.533203,95.4804688 L253.533203,88.7226562 L256.257812,88.7226562 L256.257812,103 Z M273.787109,103 L272.751953,99.6015625 L267.546875,99.6015625 L266.511719,103 L263.25,103 L268.289062,88.6640625 L271.990234,88.6640625 L277.048828,103 L273.787109,103 Z M272.029297,97.0625 C271.072261,93.9830575 270.533529,92.2415385 270.413086,91.8378906 C270.292643,91.4342428 270.20638,91.1152355 270.154297,90.8808594 C269.939452,91.7141969 269.324224,93.7747231 268.308594,97.0625 L272.029297,97.0625 Z M287.273438,99.0351562 C287.273438,100.324225 286.809575,101.33984 285.881836,102.082031 C284.954097,102.824222 283.66342,103.195312 282.009766,103.195312 C280.486321,103.195312 279.138678,102.908857 277.966797,102.335938 L277.966797,99.5234375 C278.930343,99.9531271 279.745765,100.255858 280.413086,100.431641 C281.080407,100.607423 281.690752,100.695312 282.244141,100.695312 C282.908206,100.695312 283.417641,100.568361 283.772461,100.314453 C284.12728,100.060546 284.304688,99.6829452 284.304688,99.1816406 C284.304688,98.9016913 284.226563,98.6526704 284.070312,98.4345703 C283.914062,98.2164703 283.684572,98.0065114 283.381836,97.8046875 C283.0791,97.6028636 282.462244,97.2806012 281.53125,96.8378906 C280.65885,96.4277323 280.004559,96.0338561 279.568359,95.65625 C279.132159,95.2786439 278.783855,94.8391952 278.523438,94.3378906 C278.26302,93.836586 278.132812,93.2506544 278.132812,92.5800781 C278.132812,91.317051 278.560868,90.3242224 279.416992,89.6015625 C280.273116,88.8789026 281.456373,88.5175781 282.966797,88.5175781 C283.708988,88.5175781 284.416989,88.6054679 285.09082,88.78125 C285.764652,88.9570321 286.469397,89.2044255 287.205078,89.5234375 L286.228516,91.8769531 C285.466793,91.5644516 284.836917,91.3463548 284.338867,91.2226562 C283.840818,91.0989577 283.350914,91.0371094 282.869141,91.0371094 C282.296221,91.0371094 281.856772,91.1705716 281.550781,91.4375 C281.24479,91.7044284 281.091797,92.0527322 281.091797,92.4824219 C281.091797,92.7493503 281.153645,92.9820954 281.277344,93.1806641 C281.401042,93.3792328 281.59798,93.5712881 281.868164,93.7568359 C282.138348,93.9423837 282.77799,94.2760393 283.787109,94.7578125 C285.121751,95.3958365 286.036456,96.0354786 286.53125,96.6767578 C287.026044,97.3180371 287.273438,98.104162 287.273438,99.0351562 Z M289.861328,103 L289.861328,88.7226562 L292.888672,88.7226562 L292.888672,103 L289.861328,103 Z M305.222656,103 L304.1875,99.6015625 L298.982422,99.6015625 L297.947266,103 L294.685547,103 L299.724609,88.6640625 L303.425781,88.6640625 L308.484375,103 L305.222656,103 Z M303.464844,97.0625 C302.507808,93.9830575 301.969076,92.2415385 301.848633,91.8378906 C301.72819,91.4342428 301.641927,91.1152355 301.589844,90.8808594 C301.374999,91.7141969 300.759771,93.7747231 299.744141,97.0625 L303.464844,97.0625 Z M310.28125,103 L310.28125,88.7226562 L313.308594,88.7226562 L313.308594,100.5 L319.099609,100.5 L319.099609,103 L310.28125,103 Z M321.580078,103 L321.580078,88.7226562 L324.607422,88.7226562 L324.607422,100.5 L330.398438,100.5 L330.398438,103 L321.580078,103 Z M341.619141,103 L340.583984,99.6015625 L335.378906,99.6015625 L334.34375,103 L331.082031,103 L336.121094,88.6640625 L339.822266,88.6640625 L344.880859,103 L341.619141,103 Z M339.861328,97.0625 C338.904292,93.9830575 338.36556,92.2415385 338.245117,91.8378906 C338.124674,91.4342428 338.038412,91.1152355 337.986328,90.8808594 C337.771483,91.7141969 337.156255,93.7747231 336.140625,97.0625 L339.861328,97.0625 Z M346.023438,101.603516 C346.023438,101.056638 346.16992,100.643231 346.462891,100.363281 C346.755861,100.083332 347.182289,99.9433594 347.742188,99.9433594 C348.282555,99.9433594 348.700845,100.086587 348.99707,100.373047 C349.293296,100.659507 349.441406,101.069659 349.441406,101.603516 C349.441406,102.117841 349.291668,102.52311 348.992188,102.819336 C348.692707,103.115561 348.276044,103.263672 347.742188,103.263672 C347.19531,103.263672 346.772137,103.118817 346.472656,102.829102 C346.173176,102.539387 346.023438,102.130862 346.023438,101.603516 Z" id="AKATEEMISEN-ATK:N-AS" fill="#0B3954"></path>
        <polygon id="Triangle" fill="#0B3954" transform="translate(248.500000, 36.500000) rotate(90.000000) translate(-248.500000, -36.500000) " points="248.5 23 275 50 222 50"></polygon>
        <polygon id="Triangle" fill="#0B3954" transform="translate(108.500000, 36.500000) rotate(90.000000) translate(-108.500000, -36.500000) " points="108.5 23 135 50 82 50"></polygon>
        <polygon id="Triangle" fill="#0B3954" transform="translate(13.500000, 36.500000) rotate(90.000000) translate(-13.500000, -36.500000) " points="13.5 23 40 50 -13 50"></polygon>
        <path d="M86.8066406,23.828125 C86.8066406,31.8034253 84.4547761,37.9638455 79.7509766,42.3095703 C75.047177,46.6552952 68.3659287,48.828125 59.7070312,48.828125 L54.2871094,48.828125 L54.2871094,72.5097656 L35,72.5097656 L35,1.12304688 L59.7070312,1.12304688 C68.7240034,1.12304688 75.494769,3.09242822 80.0195312,7.03125 C84.5442935,10.9700718 86.8066406,16.5689741 86.8066406,23.828125 Z M54.2871094,33.1054688 L57.8027344,33.1054688 C60.6998843,33.1054688 63.0029211,32.2916748 64.7119141,30.6640625 C66.420907,29.0364502 67.2753906,26.7903789 67.2753906,23.9257812 C67.2753906,19.1080488 64.6061465,16.6992188 59.2675781,16.6992188 L54.2871094,16.6992188 L54.2871094,33.1054688 Z M130.136719,72.5097656 L130.136719,1.12304688 L149.521484,1.12304688 L149.521484,72.5097656 L130.136719,72.5097656 Z M226.748047,36.71875 C226.748047,48.7305288 223.802113,57.8612969 217.910156,64.1113281 C212.0182,70.3613594 203.391984,73.4863281 192.03125,73.4863281 C180.833277,73.4863281 172.247751,70.3450835 166.274414,64.0625 C160.301077,57.7799165 157.314453,48.6328726 157.314453,36.6210938 C157.314453,24.7395239 160.284801,15.6657214 166.225586,9.39941406 C172.166371,3.13310669 180.800725,0 192.128906,0 C203.48964,0 212.09958,3.10869287 217.958984,9.32617188 C223.818389,15.5436509 226.748047,24.6744189 226.748047,36.71875 Z M177.626953,36.71875 C177.626953,50.5209023 182.428337,57.421875 192.03125,57.421875 C196.914087,57.421875 200.53547,55.7454595 202.895508,52.3925781 C205.255546,49.0396968 206.435547,43.8151396 206.435547,36.71875 C206.435547,29.5898081 205.23927,24.3245613 202.84668,20.9228516 C200.45409,17.5211418 196.881534,15.8203125 192.128906,15.8203125 C182.460889,15.8203125 177.626953,22.7863887 177.626953,36.71875 Z M304.378906,15.9179688 C299.78904,15.9179688 296.208346,17.7978328 293.636719,21.5576172 C291.065091,25.3174016 289.779297,30.501269 289.779297,37.109375 C289.779297,50.8464229 295.003854,57.7148438 305.453125,57.7148438 C308.610693,57.7148438 311.670558,57.275395 314.632812,56.3964844 C317.595067,55.5175737 320.573553,54.4596416 323.568359,53.2226562 L323.568359,69.53125 C317.611298,72.1679819 310.873084,73.4863281 303.353516,73.4863281 C292.578722,73.4863281 284.318714,70.3613594 278.573242,64.1113281 C272.827771,57.8612969 269.955078,48.8281841 269.955078,37.0117188 C269.955078,29.6223589 271.346666,23.1282832 274.129883,17.5292969 C276.9131,11.9303105 280.916966,7.62534058 286.141602,4.61425781 C291.366237,1.60317505 297.510381,0.09765625 304.574219,0.09765625 C312.289101,0.09765625 319.662074,1.77407178 326.693359,5.12695313 L320.785156,20.3125 C318.148424,19.0755146 315.511732,18.0338584 312.875,17.1875 C310.238268,16.3411416 307.406265,15.9179688 304.378906,15.9179688 Z M404.279297,36.71875 C404.279297,48.7305288 401.333363,57.8612969 395.441406,64.1113281 C389.54945,70.3613594 380.923234,73.4863281 369.5625,73.4863281 C358.364527,73.4863281 349.779001,70.3450835 343.805664,64.0625 C337.832327,57.7799165 334.845703,48.6328726 334.845703,36.6210938 C334.845703,24.7395239 337.816051,15.6657214 343.756836,9.39941406 C349.697621,3.13310669 358.331975,0 369.660156,0 C381.02089,0 389.63083,3.10869287 395.490234,9.32617188 C401.349639,15.5436509 404.279297,24.6744189 404.279297,36.71875 Z M355.158203,36.71875 C355.158203,50.5209023 359.959587,57.421875 369.5625,57.421875 C374.445337,57.421875 378.06672,55.7454595 380.426758,52.3925781 C382.786796,49.0396968 383.966797,43.8151396 383.966797,36.71875 C383.966797,29.5898081 382.77052,24.3245613 380.37793,20.9228516 C377.98534,17.5211418 374.412784,15.8203125 369.660156,15.8203125 C359.992139,15.8203125 355.158203,22.7863887 355.158203,36.71875 Z" id="P-IO-CO" fill="#F83E3E"></path>
    </g>
</svg>