<?xml version="1.0" encoding="UTF-8"?>
<svg width="87px" height="72px" viewBox="0 0 87 72" version="1.1" xmlns="http://www.w3.org/2000/svg" xmlns:xlink="http://www.w3.org/1999/xlink">
    <!-- Generator: Sketch 52.6 (67491) - http://www.bohemiancoding.com/sketch -->
    <title>Icon-White</title>
    <desc>Created with Sketch.</desc>
    <g id="Icon-White" stroke="none" stroke-width="1" fill="none" fill-rule="evenodd">
        <polygon id="Triangle" fill="#FFFFFF" transform="translate(13.500000, 34.500000) rotate(90.000000) translate(-13.500000, -34.500000) " points="13.5 21 40 48 -13 48"></polygon>
        <path d="M86.8066406,22.7050781 C86.8066406,30.6803784 84.4547761,36.8407986 79.7509766,41.1865234 C75.047177,45.5322483 68.3659287,47.7050781 59.7070312,47.7050781 L54.2871094,47.7050781 L54.2871094,71.3867188 L35,71.3867188 L35,0 L59.7070312,0 C68.7240034,0 75.494769,1.96938135 80.0195312,5.90820312 C84.5442935,9.8470249 86.8066406,15.4459272 86.8066406,22.7050781 Z M54.2871094,31.9824219 L57.8027344,31.9824219 C60.6998843,31.9824219 63.0029211,31.1686279 64.7119141,29.5410156 C66.420907,27.9134033 67.2753906,25.667332 67.2753906,22.8027344 C67.2753906,17.985002 64.6061465,15.5761719 59.2675781,15.5761719 L54.2871094,15.5761719 L54.2871094,31.9824219 Z" id="P" fill="#FFFFFF"></path>
    </g>
</svg>