<?xml version="1.0" encoding="UTF-8" standalone="no"?>
<svg
   xmlns:dc="http://purl.org/dc/elements/1.1/"
   xmlns:cc="http://creativecommons.org/ns#"
   xmlns:rdf="http://www.w3.org/1999/02/22-rdf-syntax-ns#"
   xmlns:svg="http://www.w3.org/2000/svg"
   xmlns="http://www.w3.org/2000/svg"
   xmlns:sodipodi="http://sodipodi.sourceforge.net/DTD/sodipodi-0.dtd"
   xmlns:inkscape="http://www.inkscape.org/namespaces/inkscape"
   version="1.0"
   width="1280.000000pt"
   height="1280.000000pt"
   viewBox="0 0 1280.000000 1280.000000"
   preserveAspectRatio="xMidYMid meet"
   id="svg24"
   sodipodi:docname="1915322.svg"
   inkscape:version="0.92.0 r15299">
  <defs
     id="defs28" />
  <sodipodi:namedview
     pagecolor="#ffffff"
     bordercolor="#666666"
     borderopacity="1"
     objecttolerance="10"
     gridtolerance="10"
     guidetolerance="10"
     inkscape:pageopacity="0"
     inkscape:pageshadow="2"
     inkscape:window-width="3840"
     inkscape:window-height="2066"
     id="namedview26"
     showgrid="false"
     inkscape:zoom="1.10625"
     inkscape:cx="405.57614"
     inkscape:cy="1035.6356"
     inkscape:window-x="-11"
     inkscape:window-y="-11"
     inkscape:window-maximized="1"
     inkscape:current-layer="g22" />
  <metadata
     id="metadata2">
Created by potrace 1.15, written by Peter Selinger 2001-2017
<rdf:RDF>
  <cc:Work
     rdf:about="">
    <dc:format>image/svg+xml</dc:format>
    <dc:type
       rdf:resource="http://purl.org/dc/dcmitype/StillImage" />
  </cc:Work>
</rdf:RDF>
</metadata>
  <g
     transform="matrix(0.1,0,0,-0.1,0,1280)"
     id="g22"
     style="fill:#000000;stroke:none">
    <path
       d="m 8083,4823 c -24,-9 -13,-47 23,-84 32,-33 35,-40 32,-87 l -3,-52 -48,70 c -36,53 -54,70 -71,70 -29,0 -40,-24 -24,-53 6,-12 42,-68 80,-124 46,-69 68,-112 68,-132 0,-28 -2,-29 -35,-24 -33,5 -35,4 -35,-24 0,-20 11,-39 35,-63 44,-42 48,-86 10,-96 -35,-9 -51,8 -65,66 -13,56 -30,74 -60,65 -14,-4 -20,-15 -20,-36 v -30 l -31,22 c -21,15 -47,56 -86,136 -58,122 -83,156 -108,147 -23,-9 -18,-45 17,-120 18,-38 34,-72 36,-77 2,-4 -18,5 -44,21 -40,23 -51,36 -61,71 -15,52 -29,71 -54,71 -14,0 -21,-9 -26,-30 -3,-17 -14,-35 -25,-41 -12,-6 -18,-19 -16,-32 2,-14 -4,-26 -17,-32 -26,-13 -32,-53 -10,-61 9,-4 41,-1 70,5 52,12 56,11 102,-16 l 48,-28 -87,-6 c -86,-6 -118,-18 -118,-45 0,-27 35,-31 177,-22 128,8 145,7 169,-8 26,-17 26,-18 5,-26 -23,-8 -30,-52 -10,-64 6,-3 37,-1 69,6 43,9 63,9 79,1 27,-15 27,-46 0,-64 -17,-13 -28,-13 -72,-1 -29,7 -60,11 -69,8 -26,-8 -23,-51 4,-65 l 22,-12 -28,-14 c -21,-11 -63,-13 -184,-11 -156,3 -157,3 -160,-19 -4,-30 30,-43 113,-43 35,0 66,-4 70,-10 3,-5 -13,-19 -36,-31 -38,-19 -48,-20 -98,-10 -45,9 -58,9 -69,-3 -18,-17 -9,-46 16,-53 14,-3 17,-12 14,-33 -3,-22 1,-30 17,-35 13,-4 21,-15 21,-29 0,-13 6,-29 14,-35 28,-24 54,6 70,81 4,18 20,36 49,53 24,14 47,25 50,25 3,0 -11,-36 -33,-81 -42,-87 -43,-112 -1,-107 22,3 35,21 92,132 60,117 88,156 111,156 4,0 8,-11 8,-25 0,-29 25,-43 48,-28 15,9 24,30 36,85 8,35 39,53 66,38 30,-16 25,-55 -15,-99 -19,-21 -35,-48 -35,-61 0,-19 4,-22 35,-18 33,4 35,2 35,-25 0,-20 -26,-68 -80,-149 -44,-66 -80,-124 -80,-128 0,-5 7,-16 16,-24 23,-23 44,-7 95,71 l 44,67 3,-53 c 3,-50 1,-57 -32,-90 -38,-39 -47,-78 -20,-88 9,-3 25,-1 35,6 15,8 24,8 39,-1 16,-10 24,-10 40,0 15,9 24,9 39,1 24,-16 51,-5 51,19 0,11 -18,40 -40,65 -34,39 -40,52 -40,91 0,25 3,46 8,46 4,0 20,-21 36,-46 63,-100 95,-123 115,-85 8,14 0,35 -42,100 -29,45 -67,105 -84,134 -18,28 -33,61 -33,73 0,18 5,21 38,20 54,-2 55,28 2,79 -46,45 -51,77 -15,93 37,17 53,5 70,-50 17,-60 31,-78 56,-78 14,0 21,9 26,30 3,17 7,30 10,30 23,0 59,-51 113,-159 64,-130 76,-146 105,-135 23,9 18,36 -19,118 -19,42 -33,76 -30,76 3,0 23,-10 44,-22 33,-19 43,-33 58,-77 21,-63 42,-82 67,-61 10,9 14,22 10,37 -4,16 -1,23 9,23 18,0 38,33 31,52 -3,7 5,18 17,23 29,13 35,41 10,54 -13,7 -33,6 -68,-3 -46,-13 -52,-12 -98,13 l -49,26 29,6 c 16,4 54,7 85,8 66,1 100,21 83,48 -10,16 -26,18 -167,15 -106,-3 -162,0 -177,8 l -22,12 22,23 c 44,47 3,68 -82,45 -49,-14 -79,0 -76,36 4,43 21,49 95,34 55,-11 67,-10 74,1 13,21 6,42 -18,54 -22,11 -22,11 7,29 26,15 44,16 172,7 143,-9 178,-4 178,23 0,26 -30,38 -117,44 l -88,7 48,29 c 44,26 51,27 92,17 59,-15 82,-14 89,4 8,22 -3,43 -26,51 -11,3 -17,12 -14,20 8,22 -4,44 -26,44 -11,0 -16,5 -13,11 4,5 4,21 1,35 -5,19 -12,24 -29,22 -22,-3 -42,-34 -52,-81 -4,-19 -20,-37 -52,-57 -26,-17 -48,-28 -50,-26 -3,2 12,36 32,76 41,82 43,115 5,115 -22,0 -32,-15 -85,-124 -36,-72 -73,-134 -90,-149 l -30,-25 -5,29 c -7,41 -51,47 -68,9 -7,-14 -12,-35 -12,-46 0,-11 -12,-31 -26,-45 -24,-25 -26,-25 -45,-8 -28,25 -24,52 17,96 45,51 44,84 -3,82 -56,-3 -45,37 47,177 44,66 80,127 80,134 0,8 -8,19 -18,24 -27,14 -54,-8 -99,-82 l -38,-62 -3,54 c -3,50 -1,57 32,90 39,40 44,62 21,81 -12,10 -19,9 -38,-2 -19,-13 -24,-13 -35,-2 -16,18 -27,18 -44,0 -12,-11 -17,-11 -33,0 -20,15 -23,15 -42,7 z m 120,-687 c 9,-22 -19,-42 -37,-26 -19,15 -10,40 14,40 10,0 20,-6 23,-14 z"
       id="path16"
       inkscape:connector-curvature="0" />
    <path
       d="m 10529,4332 c -41,-27 -204,-193 -233,-236 -29,-43 -33,-84 -12,-124 8,-15 53,-65 101,-112 48,-47 93,-97 101,-112 12,-24 21,-168 10,-168 -2,0 -27,16 -56,35 -57,39 -63,40 -109,24 -38,-13 -51,-35 -51,-86 0,-51 27,-93 120,-182 43,-42 83,-86 89,-98 13,-26 15,-163 2,-163 -5,0 -14,7 -22,16 -7,8 -30,24 -51,35 -32,17 -45,18 -78,9 -22,-6 -44,-20 -50,-30 -7,-13 -21,-20 -40,-20 -47,0 -87,-42 -100,-105 -6,-30 -15,-55 -19,-55 -3,0 -31,25 -61,55 l -55,56 -5,152 c -7,194 -22,227 -100,227 -16,0 -36,-3 -45,-6 -22,-9 -46,-58 -54,-113 l -7,-46 -62,59 -62,59 v 141 c 0,156 -10,191 -63,230 -26,19 -42,21 -205,21 -157,0 -181,-2 -209,-19 -17,-11 -36,-30 -42,-43 -7,-14 -11,-97 -11,-207 0,-170 2,-185 20,-209 30,-37 76,-47 228,-47 h 134 l 64,-62 c 35,-33 64,-65 64,-70 0,-4 -22,-8 -49,-8 -39,0 -56,-6 -81,-26 -27,-24 -31,-32 -28,-72 2,-36 9,-49 31,-66 25,-19 46,-22 182,-26 l 154,-5 66,-65 66,-65 -58,-6 c -47,-6 -62,-12 -85,-38 -17,-19 -28,-43 -28,-60 0,-15 -9,-39 -21,-52 -35,-40 -41,-66 -23,-107 8,-20 27,-49 41,-65 l 27,-27 h -93 -94 l -98,95 c -122,116 -148,131 -200,116 -21,-7 -43,-20 -49,-31 -18,-33 -12,-91 13,-124 44,-58 46,-56 -52,-56 h -91 l -97,98 c -156,155 -181,157 -323,25 -134,-125 -170,-174 -170,-228 0,-24 6,-50 13,-57 6,-7 44,-49 82,-92 91,-103 175,-166 222,-166 50,0 67,12 179,121 l 101,99 h 87 c 47,0 86,-2 86,-5 0,-3 -13,-24 -30,-47 -44,-61 -37,-133 17,-157 57,-26 104,-4 188,87 33,36 77,78 99,94 35,25 47,28 122,28 h 83 l -35,-51 c -40,-61 -43,-97 -9,-137 16,-20 25,-42 25,-65 0,-20 3,-43 6,-52 9,-22 50,-41 107,-49 26,-4 47,-11 47,-15 0,-7 -70,-76 -104,-102 -14,-10 -60,-15 -172,-19 -135,-4 -156,-7 -181,-26 -25,-19 -28,-28 -28,-74 0,-45 4,-56 25,-71 14,-10 50,-23 80,-27 l 55,-9 -61,-60 -61,-61 -149,-4 c -115,-3 -156,-8 -181,-21 -60,-32 -63,-42 -63,-249 V 970 l 29,-32 29,-33 189,-3 c 274,-5 280,-1 275,219 -2,92 0,145 8,161 14,27 110,128 122,128 4,0 8,-13 8,-30 0,-41 28,-108 51,-120 23,-13 75,-13 98,0 36,19 51,82 51,216 0,72 5,135 11,147 13,25 100,117 110,117 4,0 10,-19 14,-42 14,-81 49,-123 99,-116 13,1 36,-8 55,-25 47,-39 95,-37 155,8 l 46,36 v -90 -89 l -81,-84 c -45,-45 -95,-101 -110,-122 -85,-115 29,-210 145,-121 l 46,35 v -92 -91 l -82,-81 c -113,-112 -138,-149 -138,-202 0,-40 6,-50 79,-132 124,-136 183,-181 243,-182 33,0 48,9 115,69 143,126 203,202 203,253 0,39 -46,104 -119,167 -86,75 -99,100 -101,196 -1,44 -1,83 -1,87 1,5 22,-8 48,-28 41,-31 52,-35 88,-31 45,6 85,44 85,81 0,34 -50,105 -116,165 -98,90 -104,101 -104,203 v 88 l 47,-36 c 41,-31 53,-35 86,-31 21,3 48,14 59,24 12,10 36,18 59,19 54,0 85,32 100,102 l 11,54 58,-57 58,-57 4,-147 c 5,-199 22,-228 123,-219 47,4 73,36 83,102 l 7,47 60,-61 60,-60 v -143 c 0,-125 2,-146 20,-177 36,-61 69,-70 245,-70 173,0 220,9 250,47 19,24 20,39 20,222 0,166 -3,200 -16,220 -29,41 -72,51 -224,51 h -141 l -60,57 c -32,31 -59,60 -59,65 0,4 16,8 36,8 47,0 101,26 110,53 8,24 7,71 -2,100 -11,35 -65,47 -204,47 -150,0 -161,3 -235,79 l -49,51 h 46 c 31,0 54,7 72,21 33,26 58,73 50,93 -3,8 5,30 19,48 13,18 27,41 31,51 7,22 -23,96 -47,116 -31,25 -18,31 64,31 h 82 l 96,-93 c 119,-116 135,-127 187,-127 34,0 47,5 63,26 34,44 23,125 -23,163 -27,23 -7,31 71,31 h 76 l 96,-93 c 123,-120 147,-137 186,-137 42,0 81,27 187,131 110,107 138,149 138,205 0,40 -6,50 -79,132 -92,102 -155,156 -206,178 -58,24 -93,6 -215,-112 l -107,-104 h -82 -82 l 30,43 c 40,55 49,99 26,133 -31,48 -92,59 -150,26 -10,-5 -61,-53 -115,-106 l -97,-96 h -81 c -45,0 -82,3 -82,6 0,3 14,23 32,45 38,47 41,93 8,138 -11,17 -27,50 -33,72 -15,50 -46,76 -111,92 l -48,12 60,58 61,57 h 128 c 194,0 243,21 243,103 0,32 -6,49 -22,65 -29,26 -70,42 -111,42 h -32 l 63,63 62,62 166,5 166,5 29,33 29,32 v 195 195 l -29,32 -29,33 -190,3 c -279,5 -284,0 -290,-244 l -4,-152 -58,-57 -57,-56 -6,53 c -4,29 -15,64 -25,77 -37,50 -118,48 -156,-3 -19,-24 -21,-44 -24,-185 l -4,-158 -57,-57 -58,-58 -7,43 c -14,90 -62,141 -116,124 -15,-5 -28,-1 -43,13 -51,48 -90,47 -157,-3 l -35,-26 -3,82 -3,83 85,85 c 95,97 136,153 136,187 0,89 -96,124 -178,64 l -42,-30 v 87 86 l 80,75 c 102,95 140,152 140,208 0,38 -7,50 -82,134 -107,122 -186,180 -242,180 -22,0 -53,-8 -67,-18 z m 116,-262 39,-40 -39,-40 c -21,-22 -44,-40 -50,-40 -6,0 -28,17 -48,38 l -37,38 36,42 c 19,23 41,42 48,42 6,0 30,-18 51,-40 z M 9464,3604 c 12,-5 16,-21 16,-71 v -64 l -67,3 -68,3 -3,54 c -2,29 -1,60 2,67 6,15 89,20 120,8 z m 2386,-64 v -60 h -65 -65 v 60 60 h 65 65 z m -1441,-646 c 77,-72 91,-102 91,-201 0,-44 -3,-83 -6,-86 -8,-8 -88,66 -125,117 -27,36 -29,45 -29,133 0,51 2,93 5,93 3,0 31,-25 64,-56 z m 441,-44 v -100 l -66,-70 c -37,-38 -70,-70 -75,-70 -5,0 -9,41 -9,92 0,84 2,94 27,127 41,54 104,121 114,121 5,0 9,-45 9,-100 z m -572,-325 77,-74 -109,-1 h -109 l -76,75 -76,75 h 108 107 z m 851,0 -76,-75 h -97 c -53,0 -96,4 -96,8 0,5 31,39 69,75 l 69,67 h 104 103 z m -2159,-130 44,-45 -47,-48 -47,-47 -47,47 -47,48 44,45 c 24,25 47,45 50,45 3,0 26,-20 50,-45 z m 3354,-4 39,-40 -32,-40 c -18,-23 -40,-41 -49,-41 -17,0 -82,58 -82,73 0,14 63,85 75,86 6,1 28,-17 49,-38 z m -1974,-147 c 0,-11 -84,-96 -124,-125 -37,-27 -45,-29 -138,-29 -54,0 -98,4 -98,9 0,5 34,41 75,80 l 75,71 h 105 c 58,0 105,-3 105,-6 z m 737,-33 c 27,-21 62,-53 77,-72 l 29,-34 -98,-3 -99,-3 -68,68 c -37,37 -68,71 -68,75 0,5 40,8 89,8 88,0 90,0 138,-39 z m -587,-209 c 0,-74 -4,-104 -16,-122 -22,-33 -126,-140 -136,-140 -12,0 -9,189 3,213 13,26 130,147 141,147 4,0 8,-44 8,-98 z m 254,46 c 87,-82 96,-100 96,-205 0,-51 -4,-93 -9,-93 -5,0 -38,31 -74,69 l -66,70 -3,100 c -2,56 0,101 3,101 4,0 27,-19 53,-42 z M 9470,1165 v -65 h -65 -65 v 58 c 0,32 3,62 7,65 3,4 33,7 65,7 h 58 z m 2380,-5 v -61 l -62,3 -63,3 -3,58 -3,57 h 66 65 z m -1190,-456 32,-37 -46,-46 -46,-46 -47,47 -47,48 43,44 c 50,51 58,50 111,-10 z"
       id="path18"
       inkscape:connector-curvature="0" />
    <path
       d="m 6067,3765 c -9,-20 -17,-40 -17,-45 0,-5 46,-32 103,-60 56,-28 108,-58 115,-67 12,-17 17,-113 6,-113 -4,0 -46,18 -95,40 -49,22 -91,40 -92,40 -7,0 -40,-80 -36,-84 2,-3 47,-24 99,-48 119,-56 130,-66 130,-127 0,-26 -3,-50 -6,-53 -3,-3 -43,12 -90,33 -46,21 -88,39 -92,39 -4,0 -15,-19 -24,-41 l -17,-41 103,-48 c 56,-27 108,-55 115,-64 17,-20 -7,-109 -65,-240 -48,-109 -61,-133 -67,-126 -2,3 -26,41 -52,85 -26,44 -62,105 -81,135 -56,89 -66,148 -39,235 8,27 12,51 10,53 -8,8 -218,52 -223,47 -9,-9 -52,-210 -47,-222 2,-7 15,-13 28,-13 13,0 46,-7 74,-15 61,-18 108,-66 153,-155 17,-33 48,-90 70,-126 22,-35 40,-68 40,-72 0,-8 -199,9 -320,27 -92,14 -102,29 -95,140 3,47 8,103 10,124 l 5,37 h -49 -48 l -8,-100 c -7,-112 -7,-112 -80,-71 l -30,17 v 133 132 l -45,-3 -45,-3 -9,-92 c -4,-51 -12,-93 -17,-93 -24,0 -79,30 -89,50 -8,14 -9,58 -4,140 l 7,120 h -46 -45 l -7,-95 c -4,-52 -11,-98 -16,-101 -5,-2 -22,2 -40,11 -17,9 -32,15 -34,13 -1,-2 -13,-23 -25,-47 l -22,-45 28,-23 c 19,-15 25,-26 18,-31 -6,-4 -35,-22 -65,-41 -93,-59 -92,-58 -62,-97 14,-19 30,-34 35,-34 5,0 49,27 97,60 49,33 96,60 105,60 17,0 71,-24 93,-42 10,-8 -8,-25 -65,-65 -42,-31 -79,-57 -81,-59 -2,-2 22,-43 45,-73 2,-2 49,26 105,63 56,36 106,66 112,66 15,0 97,-49 97,-58 0,-4 -22,-22 -48,-39 -26,-18 -60,-43 -75,-55 l -28,-23 26,-38 26,-38 67,47 c 114,81 135,94 143,94 20,0 77,-62 169,-184 55,-73 100,-135 100,-139 0,-4 -78,-7 -173,-7 -213,0 -253,10 -330,80 l -55,50 -77,-87 -76,-88 83,-77 c 46,-42 87,-77 91,-78 5,0 31,25 60,56 28,31 60,59 71,63 12,5 106,5 209,2 l 189,-6 -83,-110 c -85,-115 -128,-165 -140,-165 -3,0 -48,30 -100,66 -51,37 -98,68 -104,70 -14,6 -60,-65 -49,-75 5,-4 38,-29 74,-56 36,-27 69,-51 73,-55 10,-9 -75,-60 -100,-60 -10,0 -59,29 -108,65 -50,35 -94,64 -100,65 -5,0 -20,-16 -32,-35 l -23,-34 81,-62 81,-61 -29,-20 c -71,-48 -70,-49 -198,43 -45,32 -85,59 -88,59 -12,0 -49,-72 -41,-80 5,-5 42,-34 82,-64 l 73,-54 -45,-27 c -25,-15 -46,-31 -46,-37 0,-16 43,-88 52,-88 5,0 26,9 47,20 l 39,19 6,-22 c 3,-12 6,-41 6,-63 0,-23 3,-56 6,-73 6,-28 10,-31 45,-31 h 39 v 119 c 0,132 1,136 70,171 l 38,20 8,-100 7,-100 h 44 44 l -1,113 c -1,61 -1,120 -1,129 1,14 84,68 104,68 2,0 7,-43 10,-96 3,-53 7,-97 9,-98 2,-2 23,-1 47,2 l 44,4 -7,118 c -5,96 -4,121 8,133 10,9 69,19 188,31 95,9 183,18 196,20 12,2 22,-2 21,-8 0,-6 -40,-81 -88,-166 -97,-171 -116,-190 -214,-218 -58,-15 -59,-16 -53,-46 15,-74 58,-196 69,-196 7,0 55,13 107,29 65,19 96,34 98,45 2,9 -4,36 -13,61 -30,77 -18,136 51,252 32,56 68,118 80,138 l 20,37 63,-141 c 44,-100 61,-149 57,-166 -5,-18 -30,-35 -116,-76 -61,-29 -110,-54 -110,-56 0,-2 9,-21 20,-43 l 20,-39 78,35 c 116,54 112,54 112,0 0,-26 -4,-56 -10,-66 -5,-10 -57,-41 -115,-69 -58,-27 -105,-52 -105,-56 0,-17 30,-75 39,-75 6,0 50,18 97,40 48,22 88,40 90,40 2,0 4,-24 4,-53 0,-66 -6,-72 -131,-133 -52,-25 -96,-48 -98,-50 -4,-4 29,-84 35,-84 1,0 41,18 89,40 48,22 89,40 91,40 2,0 4,-29 4,-65 v -65 h 60 60 v 65 c 0,36 4,65 9,65 6,0 44,-16 87,-35 42,-19 82,-35 88,-35 6,0 18,18 27,39 l 16,38 -90,44 c -131,64 -137,70 -137,135 0,30 2,54 4,54 2,0 43,-18 91,-40 48,-22 89,-40 91,-40 2,0 13,18 24,40 l 20,40 -109,54 c -59,30 -111,62 -115,71 -8,21 -8,100 0,107 3,3 43,-12 90,-33 46,-21 88,-39 92,-39 7,0 42,63 42,75 0,3 -51,31 -114,62 l -114,58 75,165 c 41,91 78,168 82,173 7,7 73,-95 143,-220 36,-64 44,-132 25,-196 -8,-26 -11,-49 -7,-52 5,-3 56,-16 114,-29 95,-21 106,-21 110,-7 17,62 48,213 44,217 -3,2 -30,9 -61,14 -103,17 -147,52 -204,164 -19,38 -46,87 -60,108 -14,21 -23,41 -20,44 9,10 372,-31 371,-42 -1,-5 -5,-57 -8,-116 l -7,-108 h 44 44 l 12,89 12,88 50,-26 c 28,-14 52,-35 54,-46 3,-11 2,-64 -3,-119 -9,-108 -8,-110 50,-104 l 33,3 10,83 c 6,45 15,83 20,83 26,0 86,-36 91,-55 2,-12 1,-67 -3,-124 -5,-57 -7,-105 -4,-107 2,-3 23,-5 46,-5 h 42 l 7,73 c 4,39 10,82 13,94 l 5,22 49,-24 c 26,-14 50,-25 53,-25 5,0 57,92 54,95 -2,1 -24,16 -51,32 l -47,29 85,59 c 47,32 85,60 85,62 0,4 -28,48 -46,72 -2,2 -48,-27 -104,-63 -55,-36 -110,-66 -122,-66 -12,0 -41,12 -66,26 l -44,26 84,55 c 45,31 87,59 92,64 7,6 -8,34 -40,78 -2,2 -50,-26 -107,-63 -115,-73 -140,-79 -199,-42 l -38,23 90,62 c 50,34 90,65 90,69 0,9 -39,72 -44,72 -3,0 -53,-31 -112,-70 -60,-38 -115,-70 -124,-70 -12,0 -173,195 -204,248 -6,9 35,12 188,12 h 195 l 60,-56 61,-56 33,26 c 17,14 56,47 85,73 l 54,48 -74,82 c -40,45 -78,82 -83,82 -6,1 -31,-20 -55,-45 -72,-73 -74,-74 -295,-74 h -196 l 97,128 c 117,154 143,182 163,182 9,-1 59,-32 111,-70 l 95,-68 18,21 c 42,52 42,51 -44,115 l -81,61 54,30 c 29,17 55,31 58,31 3,0 50,-31 104,-70 l 99,-70 24,32 c 12,18 23,35 23,40 0,4 -34,33 -75,64 -41,31 -75,58 -75,59 0,7 90,55 102,55 7,0 54,-29 103,-65 50,-35 95,-65 101,-65 12,0 54,54 54,69 0,6 -36,35 -80,64 l -80,54 40,27 c 22,14 40,28 40,30 0,2 -12,24 -26,50 l -26,46 -38,-20 c -22,-11 -42,-20 -45,-20 -3,0 -5,17 -5,39 0,21 -3,66 -6,100 l -7,61 h -43 -44 v -129 c 0,-127 0,-130 -26,-150 -28,-22 -63,-36 -71,-28 -3,3 -8,46 -12,96 -5,50 -11,94 -14,97 -3,4 -22,3 -42,0 l -35,-7 v -123 c 0,-105 -3,-125 -17,-138 -22,-19 -83,-51 -89,-46 -2,2 -6,48 -10,101 l -7,97 h -43 -44 v -123 c 0,-152 -1,-153 -127,-172 -116,-17 -263,-29 -263,-21 0,17 187,339 201,346 9,5 50,15 90,21 41,7 75,13 77,14 2,2 -5,55 -14,119 -17,109 -19,117 -38,112 -12,-2 -63,-10 -115,-17 l -93,-12 8,-56 c 14,-94 8,-147 -22,-199 -15,-26 -58,-103 -96,-172 -39,-69 -71,-126 -73,-128 -7,-7 -166,361 -161,373 3,9 54,38 113,65 59,28 109,53 111,55 5,5 -28,85 -34,85 -2,0 -37,-15 -78,-34 -122,-56 -116,-56 -116,6 0,29 6,60 13,69 7,9 56,37 108,62 53,24 98,48 101,53 3,5 -5,25 -16,46 l -21,36 -72,-33 c -116,-54 -113,-54 -113,0 0,25 5,55 10,65 6,10 57,42 115,70 l 105,50 -20,40 c -11,22 -22,40 -25,40 -3,0 -43,-18 -89,-39 -47,-21 -87,-36 -90,-33 -3,3 -6,23 -6,44 v 39 l -57,-3 -58,-3 -3,-42 -3,-43 -89,45 c -49,25 -91,45 -93,45 -2,0 -11,-16 -20,-35 z m 362,-957 c 39,-86 71,-159 71,-161 0,-7 -130,-241 -139,-250 -8,-8 -161,242 -161,264 0,6 19,52 41,103 23,50 55,120 71,155 16,37 32,60 37,55 5,-5 41,-80 80,-166 z m -484,-173 c 83,-9 159,-18 170,-20 14,-3 45,-46 93,-128 39,-68 72,-127 72,-130 0,-4 -67,-7 -148,-7 h -148 l -26,28 c -14,15 -66,82 -117,150 -80,107 -89,122 -69,122 13,0 91,-7 173,-15 z m 983,-3 c -61,-83 -176,-232 -196,-254 -26,-28 -26,-28 -164,-28 -131,0 -150,4 -129,25 5,6 26,44 46,85 44,88 77,135 108,152 20,11 207,33 305,37 40,1 42,0 30,-17 z m -222,-373 c 36,-11 90,-66 129,-129 15,-25 46,-66 67,-92 l 40,-48 h -32 c -34,0 -292,28 -325,35 -13,3 -44,44 -88,119 -37,63 -67,117 -67,120 0,6 173,13 215,8 17,-2 44,-8 61,-13 z m -472,-96 c -31,-60 -63,-114 -70,-122 -12,-13 -284,-50 -377,-51 h -38 l 106,140 107,140 h 164 165 z m 195,-54 c 35,-62 64,-117 64,-123 0,-12 -145,-337 -149,-333 -7,7 -134,292 -134,300 0,14 142,267 149,267 3,0 35,-50 70,-111 z"
       id="path20"
       inkscape:connector-curvature="0" />
    <text
       xml:space="preserve"
       style="font-style:normal;font-variant:normal;font-weight:normal;font-stretch:normal;font-size:150px;line-height:187.5px;font-family:Kalam;-inkscape-font-specification:Kalam;letter-spacing:0px;word-spacing:0px;fill:#000000;fill-opacity:1;stroke:none;stroke-width:7.5"
       x="393.95016"
       y="-10753.874"
       id="text4507"
       transform="scale(1,-1)"><tspan
         sodipodi:role="line"
         id="tspan4505"
         x="393.95016"
         y="-10635.093"
         style="font-size:1440px;stroke-width:7.5" /><tspan
         sodipodi:role="line"
         x="393.95016"
         y="-10447.593"
         style="font-size:1440px;stroke-width:7.5"
         id="tspan4509" /><tspan
         sodipodi:role="line"
         x="393.95016"
         y="-9784.4971"
         style="font-size:3000px;stroke-width:7.5"
         id="tspan4513">Hyvää</tspan></text>
    <text
       xml:space="preserve"
       style="font-style:normal;font-variant:normal;font-weight:normal;font-stretch:normal;font-size:150px;line-height:187.5px;font-family:Kalam;-inkscape-font-specification:Kalam;letter-spacing:0px;word-spacing:0px;fill:#000000;fill-opacity:1;stroke:none;stroke-width:7.5"
       x="3140.4829"
       y="-7472.1353"
       id="text4507-3"
       transform="scale(1,-1)"><tspan
         sodipodi:role="line"
         id="tspan4505-7"
         x="3140.4829"
         y="-7353.354"
         style="font-size:1440px;stroke-width:7.5" /><tspan
         sodipodi:role="line"
         x="3140.4829"
         y="-7165.854"
         style="font-size:1440px;stroke-width:7.5"
         id="tspan4509-4" /><tspan
         sodipodi:role="line"
         x="3140.4829"
         y="-6502.7578"
         style="font-size:3000px;stroke-width:7.5"
         id="tspan4513-6">Joulua!</tspan></text>
    <text
       xml:space="preserve"
       style="font-style:normal;font-variant:normal;font-weight:normal;font-stretch:normal;font-size:150px;line-height:187.5px;font-family:Kalam;-inkscape-font-specification:Kalam;letter-spacing:0px;word-spacing:0px;fill:#000000;fill-opacity:1;stroke:none;stroke-width:7.5"
       x="767.60162"
       y="-5153.4917"
       id="text4507-6"
       transform="scale(1,-1)"><tspan
         sodipodi:role="line"
         id="tspan4505-3"
         x="767.60162"
         y="-5034.7104"
         style="font-size:1440px;stroke-width:7.5" /><tspan
         sodipodi:role="line"
         x="767.60162"
         y="-4847.2104"
         style="font-size:1440px;stroke-width:7.5"
         id="tspan4509-1" /><tspan
         sodipodi:role="line"
         x="767.60162"
         y="-4444.4404"
         style="font-size:1440px;stroke-width:7.5"
         id="tspan4513-1">t: Pioco ry</tspan></text>
  </g>
</svg>
