<?xml version="1.0" encoding="UTF-8"?>
<!-- Generator: Adobe Illustrator 17.1.0, SVG Export Plug-In . SVG Version: 6.00 Build 0)  -->
<!DOCTYPE svg PUBLIC "-//W3C//DTD SVG 1.1//EN" "http://www.w3.org/Graphics/SVG/1.1/DTD/svg11.dtd">
<svg version="1.1" id="Layer_1" xmlns="http://www.w3.org/2000/svg" xmlns:xlink="http://www.w3.org/1999/xlink" x="0px" y="0px" viewBox="0 25.8 200 148.5" enable-background="new 0 25.8 200 148.5" xml:space="preserve">
<g>
	<g>
		<path fill="#D4F7F4" d="M42.2,124.5c-0.7-2.8-5.7-5.2-7-1.6c-0.7-5.4-10.1-2.8-9.1,1.9c-0.9-3.9-5.7-2.7-6.5,0.6    c-2.1-1.1-4.4-0.7-5.6,1.6c-0.9,1.7-0.9,4.1,0.7,5.5c-2,0.6-4.2,1.9-3.2,4.3c1,2.3,3.5,3.9,5.7,4.9c2.6,1.3,5.5,1.6,8.3,1.7    c3.3,0.1,6.6-0.1,9.8-1c5.8-1.6,12.3-4.9,13.4-11.4c0.4-2.3,0.2-5.3-1.4-7.2C45.7,122.1,43.6,122.9,42.2,124.5    C41.5,121.7,47,118.8,42.2,124.5z"/>
		<g>
			<path fill="#FFB7B3" d="M25.4,133.9c-1.2-0.4-2.6,0.3-2.1,1.2C23.8,136.3,28.8,135.1,25.4,133.9z"/>
			<path fill="#FFB7B3" d="M44,130.5c-0.4-0.1-4.4,1.2-1.8,1.8C44.6,132.7,46,131,44,130.5z"/>
			<g>
				<path fill="#3F5463" d="M28.3,132.7c-0.1-0.5-0.5-1-0.8-1.4c-0.5,0.4-0.8,1-1,1.6c0,0-0.1,0-0.1,0c0.2-0.6,0.6-1.3,1.2-1.7      c0.4,0,0.9,1.2,1,1.6C28.4,132.7,28.3,132.7,28.3,132.7z"/>
			</g>
			<g>
				<g>
					<path fill="#3F5463" d="M40.2,130.9c-0.1-0.5-0.5-1-0.8-1.4c-0.5,0.4-0.8,1-1,1.6c0,0-0.1,0-0.1,0c0.2-0.6,0.6-1.3,1.2-1.7       c0.4,0,0.9,1.2,1,1.6C40.3,130.9,40.3,130.9,40.2,130.9z"/>
				</g>
			</g>
			<g>
				<g>
					<path fill="#3F5463" d="M34.1,135.2c-0.6,0.1-0.9-0.4-1-0.9c0,0,0.1,0,0.1,0c0.4,1.8,2,0,2.5-0.6       C36,134.4,34.5,135.2,34.1,135.2C34,135.3,34.6,135.2,34.1,135.2z"/>
				</g>
			</g>
		</g>
	</g>
	<g>
		<g>
			<path fill="#FFFFFF" d="M44.8,142.5c0.3-0.2-0.5,0.1-0.5,0c0.2-0.2,0.5-0.2,0.6-0.5c-0.3-0.1-0.5,0.3-0.6,0.5     c-0.1,0,0.2-0.9-0.2,0c0-0.3-0.1-0.6-0.3-0.8c0.2,0,1,0.1,0.2-0.1c0.1-0.1,0.6,0.1,0.8,0.1c0-0.1,0-0.2,0-0.3     c-0.1,0.1-0.4,0-0.6,0c0.1-0.1,0.3-0.2,0.4-0.2c-0.1-0.1-0.4,0.1-0.5,0.2c0-0.1,0.1-0.4,0.1-0.5c-0.5,0.1,0,0.5-0.4,0.6     c0-0.1-0.1-0.3-0.1-0.3c0,0.1,0,0.3,0,0.4c-0.3-0.2-0.6-0.4-1-0.4c0-0.1,0.3-0.2,0.4-0.3c0,0-0.3,0.1-0.4,0.1     c0-0.4,0.3-0.4,0.5-0.7c-0.6-0.3-0.3,1-0.6-0.1c0,0.6-0.1,0.4-0.5,0c0,0.1-0.1,0.1-0.1,0.2c0.3,0.2,0.7,0.2,0.6,0.6     c0,0-0.4-0.3-0.4-0.2c0.1,0,0.4,0.2,0.4,0.2c-0.4,0-0.8,0.2-1,0.5c-0.2-0.2-0.1-0.5-0.2-0.7c0,0.2,0,0.4,0,0.6     c-0.3-0.2-0.4-0.7-0.7-0.6c0.1,0.1,0.2,0.3,0.3,0.4c-0.2-0.1-0.3-0.1-0.5-0.2c0.2,0.1,0.3,0.2,0.5,0.2c-0.1,0-0.2,0-0.4,0     c0.2,0.2,0.4-0.1,0.7,0.2c-0.1,0-0.4,0.2-0.5,0.2c0,0-0.1,0.1,0,0.1c0.2-0.2,0.5-0.3,0.6-0.2c-0.2,0.2-0.3,0.5-0.3,0.8     c-0.1-0.1-0.1-0.2-0.2-0.4c0,0,0.1,0.3,0.1,0.4c-0.2,0-0.4-0.2-0.6-0.4c-0.3,0.4,0.7,0.5-0.1,0.5c0.8,0.3,0.2,0.1,0,0.4     c0,0,0.1,0.1,0.1,0.1c0.2-0.2,0.3-0.3,0.6-0.3c-0.1,0.1-0.2,0.3-0.2,0.4c0.1-0.1,0.2-0.3,0.3-0.4c0.1,1.2,0.3,0.4-0.4,0.9     c0.2,0,0.4,0,0.5,0c-0.3,0.3-0.6,0.2-0.9,0.2c0,0.1,0,0.1,0.1,0.2c0.2-0.1,0.4-0.2,0.6-0.2c-0.1,0.1-0.2,0.2-0.2,0.2     c0,0,0.1-0.2,0.2-0.2c0,0.2,0,0.4,0,0.6c0.1,0,0.2-0.1,0.3-0.1c-0.2,0-0.2-0.6,0-0.7c0.1,0.2,0.2,0.3,0.2,0.5     c0.1-0.1-0.1-0.5-0.1-0.5c0.3,0.2,0.7,0.5,1.1,0.5c0,0.1-0.1,0.2-0.3,0.2c0.1,0.1,0.2,0.1,0.3-0.1c-0.1,0.1-0.3,0.3-0.4,0.4     c0.1,0.1,0.1,0.1,0.2,0.2c0.1-0.3,0.3-0.8,0.3,0c0-0.2,0-0.4,0.1-0.5c0.1,0.2,0.3,0.3,0.4,0.5c0.1-0.1,0.1-0.2,0.2-0.2     c-0.2-0.1-0.4-0.2-0.6-0.3c0.1,0,0.3,0.1,0.4,0c-0.1,0-0.3-0.1-0.4-0.1c0.8,0,1.2-1,1.2,0c0,0,0.1-0.4,0.1-0.5     c0.4,0.3,0.1,0.4,0.3,0.8c0.3-0.3,0-0.3,0-0.6c0.2,0.1,0.3,0.2,0.5,0.3c-0.1-0.1-0.3-0.2-0.4-0.3c0.1,0,0.2,0,0.3,0     c0-0.1,0-0.2,0-0.2c-0.2,0.1-0.4,0.2-0.6,0c0.1,0,0.2-0.1,0.3-0.1c-0.7,0.2-0.4-0.2-0.3-0.8c0.1,0.1,0.2,0.3,0.3,0.4     c0-0.1-0.1-0.3-0.2-0.4c0.2,0,0.5,0.2,0.6,0.3c0-0.1,0.1-0.2,0.1-0.2c-0.1,0-0.3,0-0.4-0.1C45,142.6,44.6,142.6,44.8,142.5z      M41.4,141.6c0.1,0.1,0.2,0.2,0.3,0.2c-0.1,0.1-0.2,0.1-0.3,0.1c0.3-0.1-0.9,0.8,0.3,0c-0.1,0.5-0.2,0.4-0.6,0.5     C41.1,142.1,41.2,141.9,41.4,141.6C41.4,141.6,41.2,141.9,41.4,141.6z M42.1,142.9c0.1-0.1,0.2-0.1,0.2-0.2c0,0.2,0,0.4,0,0.6     c-0.2,0-0.3-0.1-0.5-0.2C42,143,42,142.9,42.1,142.9z M41.7,142.9c-0.2-0.3-0.1-0.4,0.3-0.3C41.9,142.7,41.8,142.8,41.7,142.9     C41.7,142.8,41.8,142.8,41.7,142.9z M42.4,142.2c-0.2-0.1-0.3-0.2-0.5-0.4c0.1-0.1,0.3-0.2,0.5-0.2     C42.4,141.8,42.4,142,42.4,142.2C42.2,142,42.4,142,42.4,142.2z M42.3,142.4c-0.2,0-0.4,0-0.6,0c0-0.2,0.1-0.3,0.2-0.4     C41.9,142.1,42.1,142.2,42.3,142.4C42,142.4,42.1,142.2,42.3,142.4z M41.3,143.3c-0.2-0.2-0.2-0.5-0.2-0.7c0.5,0,0.4,0,0.6,0.3     c-0.1,0.1-0.3,0-0.5,0c-0.1,0,0.3,0.1,0.4,0.1C41.5,143.1,41.4,143.2,41.3,143.3C41.2,143.1,41.4,143.2,41.3,143.3z M41.4,143.4     c0.1-0.1,0.2-0.2,0.3-0.2c0,0.1,0,0.2,0.1,0.3c-0.2-0.8,0.7-0.3,0.7,0.4C42,143.9,41.7,143.7,41.4,143.4z M42.4,141.2     c0,0.5-0.3,0.2-0.6,0.5c0-0.1-0.1-0.3-0.1-0.4c-0.1,0-0.1,0.3,0,0.3c-0.1-0.1-0.2-0.1-0.3-0.2C41.7,141.3,42.4,140.8,42.4,141.2z      M43.5,141.5c-0.1,0.1-0.2,0.1-0.3,0.2c0-0.1-0.1-0.2-0.1-0.2c-0.1,0.2,0.1,0.2-0.1,0.4c-0.4-0.3-0.5-0.1-0.5-0.7     C43,141.1,43.3,141.2,43.5,141.5C43.5,141.5,43.3,141.2,43.5,141.5z M43.2,142.4c-0.1,0-0.2,0-0.3,0c0.2-0.2,0.6-0.7,0.6,0     C43.3,142.4,43.2,142.4,43.2,142.4z M43.4,142.6c0,0.1-0.1,0.2-0.1,0.3c-0.1-0.1-0.2-0.2-0.4-0.3C43,142.6,43.2,142.6,43.4,142.6     C43.3,142.7,43.3,142.6,43.4,142.6z M42.6,142.1c0-0.1,0-0.4,0-0.5c0.2,0,0.3,0.1,0.4,0.2C42.9,141.9,42.8,142,42.6,142.1z      M42.6,142.7c0.1,0.1,0.3,0.2,0.5,0.4c-0.1,0.1-0.3,0.2-0.5,0.2C42.6,143.1,42.6,142.9,42.6,142.7     C42.8,142.8,42.6,142.9,42.6,142.7z M42.6,143.9c0-0.5,0.1-0.8,0.6-0.8c0,0.1,0,0.3,0,0.4c0,0,0-0.3,0-0.4     c0.1,0.1,0.3,0.2,0.4,0.3C43.4,143.7,43,143.9,42.6,143.9C42.6,143.8,43,143.9,42.6,143.9z M43.8,143.3c-0.1-0.1-0.2-0.2-0.3-0.2     c0.2,0.1,0.3,0,0.3-0.1c-0.1,0-0.3,0.1-0.4,0c0.3-0.4,0.2-0.3,0.7-0.3C44,142.9,43.9,143.1,43.8,143.3     C43.7,143.2,43.9,143.1,43.8,143.3z M43.7,142.4c-0.3,0.1-0.5-0.1-0.5-0.5c0,0,0.5,0,0.5,0c-0.1,0-0.2-0.1-0.4-0.1     c0.1-0.1,0.2-0.2,0.3-0.2c0.2,0.2,0.3,0.5,0.3,0.8C43.9,142.4,43.8,142.4,43.7,142.4z"/>
		</g>
		<g>
			<path fill="#FFFFFF" d="M23.5,146.5c0.1-0.1,0.1-0.1,0.2-0.2c-0.1,0.2-0.7,0.2-0.8,0.1c0.3-0.3,0.8-0.4,0.8-0.8     c-0.4-0.2-0.8,0.5-1,0.7c-0.4,0,0-0.4,0.1-0.5c0,0-0.1,0-0.1-0.1c-0.1,0.2-0.2,0.3-0.3,0.5c0-0.5-0.2-0.9-0.5-1.2     c0.2-0.1,0.5,0,0.7,0.1c0,0,0-0.1,0-0.1c-0.2-0.1-0.4-0.2-0.6-0.2c0.2-0.2,0.9,0.2,1.2,0.2c0-0.1,0-0.3,0-0.4     c-0.3,0.1-0.6,0-0.9,0c0.1-0.1,0.5-0.4,0.6-0.4c-0.3-0.1-0.7,0.2-0.8,0.3c0.1-0.2,0.2-0.5,0.2-0.8c-0.6-0.1-0.2,0.7-0.6,1     c0-0.2,0-0.3,0-0.5c0,0-0.1,0-0.1,0c0,0.2,0,0.4,0,0.6c-0.4-0.4-1-0.6-1.5-0.6c0-0.2,0.4-0.2,0.6-0.4c0,0-0.1,0-0.1-0.1     c-0.1,0.1-0.3,0.2-0.5,0.3c0-0.5,0.5-0.7,0.8-1.1c-0.3-0.2-0.8,0.2-0.8,0.6c0-0.3-0.1-0.5-0.1-0.8c0,0.2,0,0.4,0,0.7     c-0.2-0.2-0.5-0.4-0.7-0.6c-0.1,0.1-0.1,0.2-0.2,0.3c0.5,0.3,0.8,0.3,0.8,0.9c0,0-0.6-0.4-0.6-0.2c0.2,0.1,0.4,0.3,0.6,0.4     c-0.6,0-1.1,0.3-1.6,0.7c-0.2-0.1-0.3-0.8-0.2-1c0,0-0.1,0-0.1,0c-0.1,0.2,0,0.7,0,0.9c-0.4-0.2-0.7-1.1-1.1-0.9     c0.1,0.2,0.3,0.4,0.4,0.5c-0.2-0.1-0.5-0.2-0.7-0.2c0.2,0.1,0.5,0.2,0.7,0.4c-0.2,0-0.4,0-0.6,0c0,0.1,0,0.2,0.1,0.3     c0.4-0.2,0.6-0.2,1,0c-0.2,0.1-0.5,0.2-0.7,0.3c-0.1,0-0.1,0.1-0.1,0.2c0.2-0.1,0.5-0.3,0.7-0.3c0.6-0.2-0.1,0.9-0.2,1.3     c-0.1-0.2-0.3-0.4-0.3-0.6c0,0-0.1,0-0.1,0.1c0.1,0.1,0.2,0.3,0.3,0.5c-0.4,0-0.6-0.4-0.9-0.7c-0.1,0.1-0.1,0.2-0.2,0.3     c0.2,0.1,0.4,0.3,0.6,0.4c-0.2,0-0.4,0-0.6,0c0.2,0.1,0.4,0.1,0.6,0.2c-0.3,0.1-0.8,0.3-0.5,0.6c0.3-0.3,0.5-0.5,0.9-0.5     c-0.1,0.2-0.4,0.4-0.3,0.6c0.1-0.2,0.3-0.5,0.5-0.6c0,0.4,0.2,0.8,0.4,1.2c-0.2,0.2-0.7,0-1,0c0,0,0,0.1,0,0.1c0.3,0,0.5,0,0.8,0     c-0.4,0.4-0.9,0.3-1.4,0.3c0,0.1,0.1,0.2,0.1,0.3c0.2-0.1,0.7-0.3,1-0.3c-0.1,0.1-0.3,0.3-0.3,0.4c0.1-0.1,0.3-0.2,0.4-0.3     c0,0.3,0,0.6,0,0.9c0.1,0,0.3-0.1,0.5-0.1c-0.3-0.3-0.5-0.9,0-1.1c0.1,0.3,0.2,0.5,0.3,0.6c0.1-0.1-0.2-0.7-0.1-0.8     c0.4,0.5,1,0.8,1.7,0.8c0,0.1-0.4,0.3-0.5,0.4c0,0,0,0.1,0.1,0.1c0.1-0.1,0.2-0.2,0.4-0.2c-0.2,0.2-0.4,0.4-0.6,0.6     c0.1,0.1,0.2,0.2,0.3,0.3c0.1-0.2,0.2-0.5,0.3-0.7c0,0.2,0.1,0.5,0.1,0.7c0-0.3,0.1-0.5,0.1-0.8c0.2,0.2,0.4,0.5,0.6,0.7     c0.1-0.1,0.3-0.2,0.3-0.4c-0.3-0.2-0.6-0.3-0.9-0.5c0.1,0,0.5,0.2,0.6,0c-0.2-0.1-0.4-0.1-0.6-0.1c0,0.1,1.3-0.5,1.5-0.6     c0.7-0.7,0.2,0.2,0.4,0.6c0,0,0.1,0,0.1,0c-0.1-0.2,0-0.5,0-0.6c0.7,0.4,0.2,0.6,0.5,1.1c0.4-0.2,0.1-0.6,0-0.9     c0.3,0.1,0.5,0.3,0.8,0.4c-0.2-0.2-0.4-0.3-0.6-0.5c0.2,0,0.3,0,0.5,0c0-0.1,0-0.2,0-0.4c-0.4,0.1-0.4,0.3-0.8,0     c0.1,0,0.4,0,0.5-0.2c-0.1,0-0.2,0-0.4,0c-0.8,0.3-0.1-0.8-0.1-1.2c0.1,0.2,0.2,0.4,0.4,0.5c0,0,0-0.1,0-0.1     c-0.1-0.1-0.3-0.3-0.3-0.5c0.4,0,0.6,0.3,1,0.5c0.1-0.1,0.1-0.2,0.1-0.4c-0.2-0.1-0.4-0.2-0.6-0.3     C23.3,146.6,23.4,146.6,23.5,146.5C23.6,146.5,23.5,146.6,23.5,146.5z M18.3,145.2c0.2,0.1,0.3,0.2,0.4,0.3     c-0.2,0-0.3,0.1-0.4,0.2c0,0,0,0.1,0,0.1c0.1-0.1,0.3-0.2,0.5-0.2c-0.5,0.6,0,0.8-1,0.8C17.9,146,18,145.6,18.3,145.2     C18.4,145.3,18,145.6,18.3,145.2z M19.5,147.2c0.1-0.1,0.3-0.2,0.4-0.3c0,0.3,0,0.6,0,0.9c-0.3,0-0.5-0.1-0.7-0.3     C19.2,147.3,19.3,147.2,19.5,147.2z M18.9,147.2c-0.1-0.1-0.1-0.3-0.2-0.4c0.2,0,0.4,0,0.6,0C19.2,146.9,19,147,18.9,147.2     C18.8,147,19,147.1,18.9,147.2z M19.8,146.1c-0.2-0.2-0.5-0.4-0.7-0.6c0.2-0.2,0.5-0.3,0.7-0.3C19.9,145.5,19.9,145.8,19.8,146.1     C19.6,145.9,19.9,145.9,19.8,146.1z M19.6,146.4c-0.3,0-0.6,0-1,0c0-0.2,0.1-0.5,0.2-0.7C19.2,145.9,19.4,146.1,19.6,146.4     C19.3,146.4,19.4,146.1,19.6,146.4z M18.2,147.8c-0.2-0.3-0.4-0.7-0.4-1.1c0.5,0.1,0.7-0.1,0.9,0.3c0.3,0.6-0.3,0.2-0.6,0.2     c0,0,0,0.1,0,0.1c0.2,0,0.4,0,0.6,0.1C18.5,147.5,18.3,147.7,18.2,147.8C18,147.5,18.3,147.7,18.2,147.8z M18.4,148     c0.1-0.1,0.3-0.2,0.4-0.3c0,0.1,0,0.4,0.1,0.5c0-0.1-0.1-0.5,0-0.6c0.2-0.1,0.4,0.2,0.6,0.2c0.5,0.2,0.3,0.5,0.4,1     C19.3,148.7,18.8,148.5,18.4,148z M20,144.6c0,0.7-0.4,0.4-0.9,0.8c0-0.2-0.1-0.4-0.1-0.6c-0.2,0.1,0,0.4,0,0.5     c-0.1-0.1-0.2-0.2-0.4-0.3c0.4-0.4,0.9-0.6,1.5-0.6C20,144.5,20,144.6,20,144.6z M21.6,145c-0.1,0.1-0.3,0.2-0.4,0.3     c0-0.1-0.1-0.3-0.1-0.4c-0.1,0.2,0.1,0.4-0.1,0.5c-0.6-0.5-0.7-0.2-0.7-1C20.8,144.4,21.2,144.7,21.6,145     C21.6,145,21.3,144.7,21.6,145z M21.1,146.3c-0.2,0-0.4,0-0.6,0c0.2-0.2,0.4-0.4,0.6-0.5c0.1,0.2,0.2,0.4,0.2,0.6     C21.3,146.4,21.2,146.3,21.1,146.3C21,146.3,21.2,146.4,21.1,146.3z M21.3,146.7c-0.1,0.1-0.1,0.3-0.2,0.4     c-0.2-0.1-0.4-0.3-0.6-0.5C20.9,146.7,21.1,146.7,21.3,146.7C21.3,146.9,21.2,146.7,21.3,146.7z M20.2,146c0-0.3,0-0.6,0-0.8     c0.2,0,0.5,0.1,0.7,0.3C20.7,145.7,20.5,145.8,20.2,146z M20.2,146.8c0.2,0.2,0.5,0.3,0.7,0.6c-0.2,0.2-0.5,0.3-0.7,0.4     C20.2,147.4,20.2,147.1,20.2,146.8C20.4,147,20.2,147.1,20.2,146.8z M20.2,148.8c0-0.3,0-0.6,0-0.9c0.3,0,0.6-0.2,0.8-0.4     c0.2,0.2,0,0.4,0.1,0.7c0,0,0.1,0,0.1,0c0-0.2,0-0.4,0-0.5c0.2,0.1,0.4,0.3,0.6,0.4C21.4,148.4,20.8,148.7,20.2,148.8     C20.2,148.6,20.8,148.7,20.2,148.8z M22,147.8c-0.2-0.1-0.4-0.2-0.5-0.4c0.1,0,0.3-0.1,0.4-0.1c0,0,0-0.1,0-0.1     c-0.2,0-0.5,0.2-0.6,0c0.4-0.5,0.3-0.5,1.1-0.5C22.3,147.1,22.2,147.5,22,147.8C21.9,147.8,22.2,147.5,22,147.8z M21.9,146.4     c-0.8-0.1-0.4-0.2-0.7-0.7c0.1-0.1,0.5,0.1,0.7,0.1c0,0,0-0.1,0-0.1c-0.2,0-0.4-0.1-0.6-0.2c0.1-0.1,0.3-0.2,0.4-0.4     c0.3,0.3,0.5,0.8,0.5,1.2C22.2,146.5,22.1,146.4,21.9,146.4C21.8,146.4,22.1,146.4,21.9,146.4z"/>
		</g>
		<g>
			<path fill="#FFFFFF" d="M32.9,147.7c0,0-0.2-1.4-0.4-1.2c-0.3,0.2-0.8-0.6-0.6-0.9c0.1,0.1,0.3,0.2,0.4,0.3     c0-0.1-0.1-1.2-0.2-1.2c-0.3,0.3-0.6,0.5-0.8,0.8c0.2,0,0.4,0,0.6,0c0,0.1-0.1,0.4-0.2,0.4c-0.6-0.2-0.5,0.2-0.9,0.1     c-0.8-0.3-0.8,0.9-1.2,0.7c-0.2,0.3-0.1,0.6-0.1,0.9c0.3,0.4,0,0.5,0.4,0.9c0.6,0,0.4,0.6,1.2,0.6c0-0.3,1-0.1,1.2-0.3     C32.3,148.8,33.3,147.7,32.9,147.7C32.8,147.6,32.9,147.7,32.9,147.7z M32.5,146.7c0.4-0.2,0.1,0.6-0.3,0.7     c-0.1-0.1-0.1-0.5-0.4-0.5C32.2,146.7,31.9,146.9,32.5,146.7C32.5,146.7,32.4,146.8,32.5,146.7z M31.8,147.7     c-0.2,0-0.3-0.1-0.5-0.1C31.8,146.7,32.2,147.5,31.8,147.7C31.8,147.7,31.9,147.6,31.8,147.7z M31.9,147.9     c0.2,0.2-0.3,0.3-0.3,0.3c0-0.1,0-0.2-0.1-0.4C31.6,147.8,31.8,147.8,31.9,147.9C31.9,147.9,31.9,147.8,31.9,147.9z M31.4,148.3     c-0.4,0.6-0.2-0.5-0.2-0.5C31.3,147.8,31.6,148.2,31.4,148.3C31.4,148.4,31.5,148.3,31.4,148.3z M30.6,148.1     c-0.2-0.2,0.3-0.4,0.4-0.4C31,147.7,30.7,148.7,30.6,148.1C30.5,148,30.6,148.2,30.6,148.1z M30.4,147.7     c-0.3-0.3,0.4-0.3,0.6-0.1C30.9,147.6,30.4,147.8,30.4,147.7C30.3,147.6,30.4,147.7,30.4,147.7z M31.2,146.7     c0.2-0.2,0.4,0,0.4,0.2c-0.1,0-0.4,0.2-0.4,0.3C31.2,147.1,31.1,146.9,31.2,146.7z M31.1,147.3c0-0.1,0-0.1,0-0.2     C31.1,147.2,31.1,147.3,31.1,147.3z M31.1,147.4c0,0-0.3-0.1-0.3-0.2C30.8,147.3,31,147.4,31.1,147.4z M31,147.6     c-0.1,0.1-0.3,0.1-0.4,0.1C30.7,147.7,31,147.5,31,147.6C30.9,147.7,31,147.6,31,147.6z M31.5,147.7c-0.1,0-0.1,0-0.1-0.1     c0.1,0,0.2,0.1,0.3,0.1C31.6,147.7,31.6,147.7,31.5,147.7z M31.2,147.4c0,0,0.1-0.3,0.3-0.3C31.5,147.3,31.4,147.4,31.2,147.4z      M31,146.9c0,0.1,0,0.2,0,0.3C30.5,147.2,30.6,146.7,31,146.9z M31,148c0-0.1,0-0.2,0.1-0.3c0,0,0.1,0,0.1,0     C31.2,147.8,31,148.3,31,148z M31.5,148c-0.3-0.2-0.2-0.2-0.1-0.4C31.4,147.8,31.6,148,31.5,148C31.4,148,31.5,148,31.5,148z      M31.8,146c0,0.4,0.3,0.5,0,0.9c0-0.4-0.7-0.7-0.7-0.3C31.1,146.2,31.3,145.8,31.8,146C31.8,146.1,31.8,146,31.8,146z      M30.2,146.1C30.3,146.1,30.3,146.1,30.2,146.1c0.5,0.1,0.8,0.1,0.8,0.7c-0.2-0.1-0.6-0.1-0.6,0.2     C30.2,146.8,29.8,146.3,30.2,146.1z M29.6,147.4c-0.4-0.2-0.1-0.3,0.2-0.4c0.4-0.2,0.2-0.1,0.7,0.1c-0.2,0.1-0.4,0.3-0.3,0.6     C29.7,147.8,30,147.6,29.6,147.4C29.6,147.4,29.8,147.5,29.6,147.4z M30,148.4c-0.1,0-0.1,0-0.2,0.1c0-0.5,0-0.6,0.5-0.6     c-0.1,0.2,0,0.3,0.1,0.4C30.3,148.5,30.3,148.3,30,148.4C30,148.4,30.1,148.3,30,148.4z M30.9,148.9c-0.2,0.4-0.3-0.2-0.5-0.4     c0.2-0.2,0.2-0.1,0.5-0.2C31.7,148.4,31,148.8,30.9,148.9C30.9,149,31,148.8,30.9,148.9z M31.7,148.8c-0.6-0.4-0.1-0.1-0.1-0.6     C32.3,148.2,32.2,149.2,31.7,148.8z M32.5,148.2c-0.7,0.2-0.3-0.2-0.6-0.5C32.4,147.3,33.2,148,32.5,148.2     C32.4,148.3,32.6,148.2,32.5,148.2z"/>
			<path fill="#FFFFFF" d="M29.5,147c-0.6-0.2-0.8-0.1-0.4-0.6c-0.1,0-1.2,0.1-1.2,0.2c0.3,0.3,0.5,0.6,0.8,0.8c0-0.2,0-0.4,0-0.5     C29,147,29.4,147.1,29.5,147z"/>
			<path fill="#FFFFFF" d="M30.6,149.5c0-0.1,0.1-0.3,0.1-0.4C30.7,149.2,30.6,149.3,30.6,149.5c-0.2-0.1-0.3-0.2-0.4-0.3     c0,0.1,0.1,1.2,0.2,1.2c0.3-0.3,0.6-0.5,0.8-0.8C31,149.5,30.8,149.5,30.6,149.5z"/>
			<path fill="#FFFFFF" d="M33.4,147.8c0,0.2,0,0.4,0,0.5c-0.1-0.1-0.5-0.1-0.5-0.1c0.6,0,0.5,0.2,0.2,0.6c0.1,0,1.2-0.1,1.2-0.2     C33.9,148.3,33.6,148,33.4,147.8C33.4,147.9,33.5,147.9,33.4,147.8z"/>
		</g>
		<g>
			<path fill="#FFFFFF" d="M27.7,151.7c0.1-0.1-0.1,0-0.3,0c0.1-0.1,0.3-0.2,0.4-0.3c0,0-0.1,0-0.1,0c0,0.1-0.3,0.4-0.4,0.4     c0.1-0.3,0.1-0.4,0,0c0-0.2-0.1-0.4-0.2-0.6c0.3,0.1,0.4-0.1,0.1-0.1c0.1-0.1,0.4,0.1,0.5,0.1c0-0.1,0-0.1,0-0.2     c-0.1,0-0.3,0-0.4,0c0.1-0.1,0.2-0.1,0.3-0.1c-0.1,0-0.2,0-0.4,0.1c0-0.1,0.1-0.2,0.1-0.3c0,0-0.1,0-0.1,0c0,0.2,0,0.3-0.1,0.4     c0-0.1,0-0.1,0-0.2c0,0,0,0.2,0,0.2c-0.2-0.2-0.4-0.3-0.6-0.3c0-0.1,0.1-0.2,0.3-0.2c-0.1,0-0.2,0.1-0.3,0.1     c0-0.3,0.3-0.3,0.4-0.5c0,0-0.1,0-0.1-0.1c0,0.5-0.2,0.2-0.3,0c0,0.4,0,0.3-0.3,0c0,0-0.1,0.1-0.1,0.1c0.2,0.2,0.4,0.1,0.4,0.4     c-0.1-0.1-0.1-0.1-0.2-0.1c0,0,0.1,0.2,0.2,0.2c-0.5,0-0.9,0.6-0.8-0.2c0,0.1,0,0.3,0,0.4c-0.2-0.1-0.3-0.2-0.3-0.4     c0,0-0.1,0-0.1,0c0.3,0.3,0.3,0.1-0.1,0.1c0.5,0.2,0.2,0.2,0,0.2c0,0,0,0.1,0,0.1c0.2,0,0.2-0.1,0.4,0c-0.2,0-0.2,0.2-0.3,0.2     c0,0,0.4-0.3,0.4-0.1c-0.1,0.2-0.2,0.4-0.2,0.6c-0.1-0.1-0.2-0.2-0.2-0.2c0.1,0.1,0.1,0.1,0.1,0.2c-0.2,0-0.3-0.2-0.4-0.3     c0,0,0,0.1-0.1,0.1c0.1,0.1,0.5,0.1,0,0.1c0.4,0.1,0.3,0.1,0,0.3c0,0,0,0,0.1,0.1c0.1-0.1,0.3-0.4,0.4-0.2     c-0.1,0.1-0.2,0.2-0.1,0.3c0,0,0.1-0.3,0.2-0.3c0,0.2,0.1,0.4,0.2,0.5c-0.1,0.1-0.5,0.1-0.5,0.1c0.1,0,0.2,0,0.3,0     c-0.2,0.1-0.3,0.1-0.6,0.1c0,0,0,0.1,0,0.1c0.1-0.1,0.3-0.1,0.4-0.1c0,0-0.2,0.2-0.1,0.2c0.1,0,0.1-0.1,0.2-0.1     c0,0.1,0,0.3,0,0.4c0.1,0,0.1,0,0.2-0.1c-0.1-0.3-0.1-0.3,0-0.5c0,0.1,0.1,0.2,0.1,0.3c0,0,0,0,0,0c0,0-0.1-0.4-0.1-0.3     c0.2,0.2,0.4,0.3,0.7,0.4c-0.1,0.1-0.4,0.3,0,0.1c-0.1,0.1-0.2,0.2-0.3,0.3c0,0,0.1,0.1,0.1,0.1c0.2-0.2,0.1-0.5,0.2,0     c0-0.5,0.1-0.5,0.3,0c0-0.3,0.6-0.1-0.2-0.4c0.1,0,0.2,0,0.3,0c-0.1,0-0.2-0.1-0.3-0.1c0.3,0,0.6-0.3,0.9-0.3c0,0.1,0,0.2,0,0.3     c0,0,0.1-0.3,0.1-0.3c0.3,0.2,0,0.3,0.2,0.5c0-0.3-0.1-0.5,0.3-0.2c-0.5-0.3-0.3-0.2-0.1-0.2c0-0.1,0-0.1,0-0.2     c-0.2,0.1-0.2,0.1-0.4,0c0.1,0,0.1-0.1,0.2-0.1c-0.1,0-0.3,0-0.4,0c0.1-0.1,0.1-0.3,0.2-0.5c0,0.1,0.1,0.2,0.2,0.2     c0,0-0.1-0.2-0.1-0.2c0.2,0,0.3,0.1,0.4,0.2C27.5,151.9,27.6,151.8,27.7,151.7c-0.2,0.1-0.3,0-0.3,0     C27.4,151.7,27.6,151.8,27.7,151.7z M25.4,151.2c0.1,0,0.1,0.1,0.2,0.1c-0.1,0.1-0.1,0.1-0.2,0.1c0.2,0-0.4,0.3,0.2,0     c-0.2,0.4,0,0.3-0.4,0.3C25.2,151.5,25.3,151.3,25.4,151.2C25.4,151.2,25.3,151.3,25.4,151.2z M25.9,152c0.1,0,0.1-0.1,0.2-0.1     C26.1,152.6,25.9,152.2,25.9,152z M25.7,152c-0.1-0.2-0.1-0.2,0.2-0.2C25.8,151.9,25.7,151.9,25.7,152     C25.6,151.9,25.7,151.9,25.7,152z M26.1,151.5c-0.1-0.1-0.2-0.2-0.3-0.2C26.3,150.9,26.1,151.3,26.1,151.5     C26,151.4,26.1,151.4,26.1,151.5z M26,151.7c-0.1,0-0.3,0-0.4,0C25.6,151.3,25.7,151.3,26,151.7C25.9,151.7,25.9,151.6,26,151.7z      M25.4,152.3c-0.1-0.1-0.1-0.3-0.2-0.5c0.3,0,0.3,0,0.4,0.2c-0.1,0.1-0.2,0-0.3,0c0,0.1,0.1,0.1,0.2,0.1     C25.5,152.2,25.4,152.2,25.4,152.3C25.3,152.1,25.4,152.2,25.4,152.3z M25.4,152.4c0,0,0.1-0.1,0.1-0.1c0,0.1,0,0.1,0.1,0.2     c-0.1-0.5,0.4-0.2,0.4,0.3C25.8,152.7,25.6,152.6,25.4,152.4z M26.1,150.9c0,0.4-0.5,0.5-0.5,0.1c0,0.1,0,0.1,0,0.2     c-0.1,0-0.1-0.1-0.2-0.1C25.5,151,26.1,150.5,26.1,150.9z M26.9,151.1c-0.1,0-0.1,0.1-0.2,0.1c0-0.1,0-0.1,0-0.2     c-0.1,0.3-0.4,0.2-0.4-0.2C26.5,150.8,26.7,150.9,26.9,151.1C26.8,151.1,26.7,150.9,26.9,151.1z M26.6,151.6c-0.1,0-0.1,0-0.2,0     c0.2-0.3,0.3-0.3,0.4,0C26.7,151.7,26.7,151.6,26.6,151.6C26.6,151.6,26.6,151.7,26.6,151.6z M26.7,151.8c0,0.1,0,0.1-0.1,0.2     c-0.1-0.1-0.2-0.1-0.2-0.2C26.5,151.8,26.6,151.8,26.7,151.8C26.7,151.9,26.7,151.8,26.7,151.8z M26.2,151.5     c0.1-0.2-0.2-0.6,0.3-0.2C26.4,151.4,26.3,151.4,26.2,151.5z M26.2,151.9c0.1,0.1,0.2,0.2,0.3,0.2     C26.3,152.4,26.1,152.3,26.2,151.9C26.3,151.9,26.2,152,26.2,151.9z M26.2,152.7c0-0.6,0-0.2,0.4-0.6c0,0.1,0,0.2,0,0.3     c0.1,0,0.1-0.1,0-0.3c0.1,0.1,0.2,0.1,0.3,0.2C26.7,152.6,26.5,152.7,26.2,152.7C26.2,152.6,26.5,152.7,26.2,152.7z M27,152.3     c-0.1-0.1-0.1-0.1-0.2-0.2c0.1,0,0.2,0,0.2-0.1c-0.1,0.1-0.2,0.1-0.3,0c0.2-0.3,0.2-0.2,0.5-0.2C27.2,152,27.1,152.1,27,152.3     C27,152.2,27.1,152.1,27,152.3z M27,151.7c-0.2,0-0.3-0.1-0.3-0.3c0.2,0.1,0.2,0,0.3,0c-0.1,0-0.2-0.1-0.2-0.1     c0.1,0,0.1-0.1,0.2-0.2c0.1,0.2,0.2,0.3,0.2,0.6C27.1,151.7,27.1,151.7,27,151.7z"/>
		</g>
		<g>
			<path fill="#FFFFFF" d="M34.9,154.4c0.1-0.1-0.1,0-0.3,0c0.1-0.1,0.3-0.2,0.4-0.3c0,0-0.1,0-0.1,0c0,0.1-0.3,0.4-0.4,0.4     c0.1-0.3,0.1-0.4,0,0c0-0.2-0.1-0.4-0.2-0.6c0.3,0.1,0.4-0.1,0.1-0.1c0.1-0.1,0.4,0.1,0.5,0.1c0-0.1,0-0.1,0-0.2     c-0.1,0-0.3,0-0.4,0c0.1-0.1,0.2-0.1,0.3-0.1c-0.1,0-0.2,0-0.4,0.1c0-0.1,0.1-0.2,0.1-0.3c0,0-0.1,0-0.1,0c0,0.2,0,0.3-0.1,0.4     c0-0.1,0-0.1,0-0.2c0,0,0,0.2,0,0.2c-0.2-0.2-0.4-0.3-0.6-0.3c0-0.1,0.1-0.2,0.3-0.2c-0.1,0-0.2,0.1-0.3,0.1     c0-0.3,0.3-0.3,0.4-0.5c0,0-0.1,0-0.1-0.1c0,0.5-0.2,0.2-0.3,0c0,0.4,0,0.3-0.3,0c0,0-0.1,0.1-0.1,0.1c0.2,0.2,0.4,0.1,0.4,0.4     c0,0-0.2-0.2-0.2-0.1c0.1,0,0.2,0.2,0.2,0.2c-0.5,0-0.9,0.6-0.8-0.2c0,0.1,0,0.3,0,0.4c-0.2-0.1-0.3-0.2-0.3-0.4c0,0-0.1,0-0.1,0     c0.3,0.3,0.3,0.1-0.1,0.1c0.5,0.2,0.2,0.2,0,0.2c0,0,0,0.1,0,0.1c0.2,0,0.2-0.1,0.4,0c-0.2,0-0.2,0.2-0.3,0.2     c0,0,0.4-0.3,0.4-0.1c-0.1,0.2-0.2,0.4-0.2,0.6c-0.1-0.1-0.2-0.2-0.2-0.2c0.1,0.1,0.1,0.1,0.1,0.2c-0.2,0-0.3-0.2-0.4-0.3     c0,0,0,0.1-0.1,0.1c0.1,0.1,0.5,0.1,0,0.1c0.4,0.1,0.3,0.1,0,0.3c0,0,0,0,0.1,0.1c0.1-0.1,0.3-0.4,0.4-0.2     c-0.1,0.1-0.2,0.2-0.1,0.3c0,0,0.1-0.3,0.2-0.3c0,0.2,0.1,0.4,0.2,0.5c-0.1,0.1-0.5,0.1-0.5,0.1c0.1,0,0.2,0,0.3,0     c-0.2,0.1-0.3,0.1-0.6,0.1c0,0,0,0.1,0,0.1c0.1-0.1,0.3-0.1,0.4-0.1c0,0-0.2,0.2-0.1,0.2c0.1,0,0.1-0.1,0.2-0.1     c0,0.1,0,0.3,0,0.4c0.1,0,0.1,0,0.2,0c-0.1-0.3-0.1-0.3,0-0.5c0,0.1,0.1,0.2,0.1,0.3c0,0,0,0,0,0c0,0-0.1-0.4-0.1-0.3     c0.2,0.2,0.4,0.3,0.7,0.4c-0.1,0.1-0.4,0.3,0,0.1c-0.1,0.1-0.2,0.2-0.3,0.3c0,0,0.1,0.1,0.1,0.1c0.2-0.2,0.1-0.5,0.2,0     c0-0.5,0.1-0.5,0.3,0c0-0.3,0.6-0.1-0.2-0.4c0.1,0,0.2,0,0.3,0c-0.1,0-0.2-0.1-0.3-0.1c0.3,0,0.6-0.3,0.9-0.3c0,0.1,0,0.2,0,0.3     c0,0,0.1-0.3,0.1-0.3c0.3,0.2,0,0.3,0.2,0.5c0-0.3-0.1-0.5,0.3-0.2c-0.5-0.3-0.3-0.2-0.1-0.2c0-0.1,0-0.1,0-0.2     c-0.2,0.1-0.2,0.1-0.4,0c0.1,0,0.1-0.1,0.2-0.1c-0.1,0-0.3,0-0.4,0c0.1-0.1,0.1-0.3,0.2-0.5c0,0.1,0.1,0.2,0.2,0.2     c0,0-0.1-0.2-0.1-0.2c0.2,0,0.3,0.1,0.4,0.2C34.8,154.6,34.8,154.6,34.9,154.4c-0.2,0.1-0.3,0-0.3,0     C34.7,154.4,34.9,154.5,34.9,154.4z M32.7,153.9c0.1,0,0.1,0.1,0.2,0.1c-0.1,0.1-0.1,0.1-0.2,0.1c0.2,0-0.4,0.3,0.2,0     c-0.2,0.4,0,0.3-0.4,0.3C32.5,154.2,32.5,154,32.7,153.9C32.7,153.9,32.5,154,32.7,153.9z M33.2,154.7c0.1,0,0.1-0.1,0.2-0.1     C33.3,155.3,33.2,154.9,33.2,154.7z M32.9,154.7c-0.1-0.2-0.1-0.2,0.2-0.2C33.1,154.6,33,154.7,32.9,154.7     C32.9,154.7,33,154.7,32.9,154.7z M33.3,154.2c-0.1-0.1-0.2-0.2-0.3-0.2C33.5,153.6,33.3,154,33.3,154.2     C33.2,154.2,33.3,154.2,33.3,154.2z M33.3,154.4c-0.1,0-0.3,0-0.4,0C32.9,154,33,154,33.3,154.4     C33.1,154.4,33.1,154.3,33.3,154.4z M32.6,155c-0.1-0.1-0.1-0.3-0.2-0.5c0.3,0,0.3,0,0.4,0.2c-0.1,0.1-0.2,0-0.3,0     c0,0.1,0.1,0.1,0.2,0.1C32.8,154.9,32.7,155,32.6,155C32.5,154.9,32.7,155,32.6,155z M32.7,155.1c0,0,0.1-0.1,0.1-0.1     c0,0.1,0,0.1,0.1,0.2c-0.1-0.5,0.4-0.2,0.4,0.3C33.1,155.4,32.9,155.3,32.7,155.1z M33.4,153.6c0,0.4-0.5,0.5-0.5,0.1     c0,0.1,0,0.1,0,0.2c-0.1,0-0.1-0.1-0.2-0.1C32.7,153.7,33.4,153.3,33.4,153.6z M34.1,153.8c-0.1,0-0.1,0.1-0.2,0.1     c0-0.1,0-0.1,0-0.2c-0.1,0.3-0.4,0.2-0.4-0.2C33.8,153.5,34,153.6,34.1,153.8C34.1,153.8,34,153.6,34.1,153.8z M33.9,154.4     c-0.1,0-0.1,0-0.2,0c0.2-0.3,0.3-0.3,0.4,0C34,154.4,33.9,154.4,33.9,154.4z M34,154.5c0,0.1,0,0.1-0.1,0.2     c-0.1-0.1-0.2-0.1-0.2-0.2C33.8,154.5,33.9,154.5,34,154.5C34,154.6,34,154.5,34,154.5z M33.5,154.2c0.1-0.2-0.2-0.6,0.3-0.2     C33.7,154.1,33.6,154.1,33.5,154.2z M33.5,154.6c0.1,0.1,0.2,0.2,0.3,0.2C33.5,155.1,33.4,155,33.5,154.6     C33.6,154.7,33.5,154.7,33.5,154.6z M33.5,155.4c0-0.6,0-0.2,0.4-0.6c0,0.1,0,0.2,0,0.3c0.1,0,0.1-0.1,0-0.3     c0.1,0.1,0.2,0.1,0.3,0.2C34,155.3,33.8,155.4,33.5,155.4C33.5,155.3,33.8,155.4,33.5,155.4z M34.3,155c-0.1-0.1-0.1-0.1-0.2-0.2     c0.1,0,0.2,0,0.2-0.1c-0.1,0.1-0.2,0.1-0.3,0c0.2-0.3,0.2-0.2,0.5-0.2C34.4,154.7,34.4,154.9,34.3,155     C34.2,155,34.4,154.8,34.3,155z M34.3,154.4c-0.2,0-0.3-0.1-0.3-0.3c0.2,0.1,0.2,0,0.3,0c-0.1,0-0.2-0.1-0.2-0.1     c0.1,0,0.1-0.1,0.2-0.2c0.1,0.2,0.2,0.3,0.2,0.6C34.4,154.4,34.3,154.4,34.3,154.4z"/>
		</g>
	</g>
</g>
<g>
	<g>
		<g>
			<path fill="#D4F7F4" d="M131.1,69.2c-0.4,3.9,3.1,6,6.4,6.9c4.1,1.2,8.4,1.4,12.6,1.7c4.9,0.3,10.7,0.5,14.5-3.1     c1.5-1.4,2.8-3.8,2.6-5.9c-0.2-2.8-3.5-3.5-4.6-0.9c1.2-2.2,2.2-5.5-0.5-7.1c-1.8-1-4.8-0.8-5.8,1.2c1.6-5.1-2.7-8.8-7.5-9.1     c-2.2-0.1-4.6,0.4-6,2.3c-1.3,1.8-1.5,4.1-1.6,6.2c-2.8-0.8-6.3,0-5.7,3.6c-1.5-1.6-4.6-1.1-5.4,1c-0.3,0.8-0.6,1.9,0,2.6     C130.3,68.7,131.1,69.1,131.1,69.2C130.3,77,131.1,68.9,131.1,69.2z"/>
			<g>
				<g>
					<path fill="#3F5463" d="M148.3,68.8c-0.4,0-0.7-0.4-0.9-0.6c0.7,0.5,1.7,0.5,2.5,0.1C149.4,68.8,148.9,68.9,148.3,68.8       C147.9,68.8,148.7,68.9,148.3,68.8z"/>
				</g>
				<path fill="#FFC5C2" d="M142.3,66.8c-0.1,0.8-2.8,0.3-3.1-0.2C138.8,66,142.4,65.7,142.3,66.8z"/>
				<path fill="#FFC5C2" d="M156.9,67.8c-0.1,0.7-3.3,0.5-3.2-0.3C153.8,66.7,157,67,156.9,67.8z"/>
			</g>
		</g>
		<g>
			<g>
				<path fill="#3F5463" d="M143,63.6c0,0.5-0.2,1.6-0.9,1.4c-0.7-0.2-0.6-1.4-1-1.4c-0.1,0.7,0.4,1.9,1.3,1.6      C142.8,65.1,143.5,63.6,143,63.6C142.9,64.1,143,63.6,143,63.6z"/>
			</g>
			<g>
				<path fill="#3F5463" d="M155,64.3c-0.1,0.3-0.5,2-1.1,1.5c-0.4-0.4-0.2-1.1-0.2-1.6c-0.5,0-0.3,1.5,0,1.8      c0.8,0.8,1.4-1.3,1.5-1.7C155.1,64.3,155,64.3,155,64.3C154.8,64.9,155.1,64.3,155,64.3z"/>
			</g>
		</g>
	</g>
	<g>
		<g>
			<path fill="#FFFFFF" d="M143.9,79.1c0.3-0.2-0.4,0.1-0.4,0c0.2-0.2,0.4-0.2,0.5-0.4c-0.3,0-0.4,0.5-0.7,0.5     c0.2-0.1,0.2-0.3,0.1-0.4c-0.1,0.1-0.1,0.2-0.2,0.3c0-0.3-0.1-0.5-0.3-0.7c0.2,0,0.8-0.1,0.1-0.1c0.1-0.1,0.5,0.1,0.7,0.1     c0-0.1,0-0.2,0-0.2c-0.1,0.1-0.4,0-0.5,0c0.1-0.1,0.3-0.2,0.4-0.2c-0.1-0.1-0.4,0.1-0.5,0.1c0-0.1,0.1-0.3,0.1-0.4     c-0.4,0.1,0,0.4-0.3,0.6c0-0.1-0.1-0.3-0.1-0.3c0,0.1,0,0.2,0,0.3c-0.2-0.2-0.5-0.4-0.9-0.4c0-0.1,0.2-0.2,0.3-0.2     c0,0-0.3,0.1-0.3,0.1c0-0.3,0.3-0.3,0.4-0.6c-0.1,0-0.1-0.1-0.2-0.1c-0.2,0.4-0.2,0.6-0.3,0c0,0.9-0.1-0.2-0.5,0.2     c0.2,0.2,0.6,0.2,0.5,0.5c0,0-0.3-0.2-0.3-0.1c0.1,0,0.3,0.2,0.3,0.2c-0.6,0-1.1,0.8-1.1-0.2c0,0.2,0,0.3,0,0.5     c-0.2-0.1-0.4-0.3-0.4-0.6c0,0-0.1,0-0.1,0.1c0.3,0.3,0.5,0.2-0.1,0.1c0.6,0.3,0.3,0.2,0,0.2c0,0.1,0,0.1,0,0.2     c0.3,0,0.3-0.3,0.6,0c-0.1,0-0.3,0.2-0.4,0.2c0,0-0.1,0.1,0,0.1c0.2-0.1,0.4-0.2,0.6-0.2c-0.2,0.2-0.3,0.5-0.3,0.7     c-0.1-0.1-0.1-0.2-0.2-0.3c0,0.1,0,0.2,0.1,0.3c-0.2,0-0.4-0.2-0.5-0.4c0.1,0.3,0.2,0.4-0.1,0.4c0.4,0.2,0.4,0.2,0,0.3     c0,0,0.1,0.1,0.1,0.1c0.1-0.1,0.3-0.3,0.5-0.3c-0.1,0.1-0.2,0.2-0.2,0.4c0,0,0.2-0.4,0.3-0.4c0,0.2,0.1,0.5,0.2,0.7     c0,0-0.7,0.1-0.6,0.1c0.2,0,0.3,0,0.5,0c0,0.4-0.7-0.1-0.7,0.4c0.1-0.1,0.4-0.2,0.5-0.2c0,0-0.2,0.2-0.2,0.2c0,0,0.1-0.2,0.2-0.2     c0,0.2,0,0.3,0,0.5c0.1,0,0.2,0,0.3-0.1c-0.2,0-0.2-0.5,0-0.6c0,0.1,0.1,0.2,0.1,0.4c0,0,0,0,0.1,0c0.1-0.1-0.1-0.4-0.1-0.4     c0.3,0.2,0.6,0.4,1,0.4c0,0.1-0.1,0.2-0.3,0.2c0.1,0.1,0.2,0.1,0.3-0.1c-0.1,0.1-0.2,0.2-0.3,0.3c0.1,0,0.1,0.1,0.2,0.1     c0.1-0.3,0.1-0.7,0.2,0c0.1-0.7,0.1-0.4,0.4,0c0.1-0.1,0.1-0.1,0.2-0.2c-0.2-0.1-0.3-0.2-0.5-0.3c0.1,0,0.3,0.1,0.3,0     c-0.1,0-0.3-0.1-0.4-0.1c0.3,0,1-0.5,1.1-0.4c0,0.1-0.1,0.3,0,0.4c0,0,0.1-0.4,0.1-0.4c0.4,0.2,0.1,0.3,0.3,0.6     c0-0.1,0-0.3,0-0.5c0.1,0.1,0.3,0.2,0.5,0.2c-0.6-0.4-0.5-0.3-0.1-0.3c0-0.1,0-0.1,0-0.2c-0.2,0.1-0.3,0.1-0.5,0     c0.1,0,0.2-0.1,0.3-0.1c-0.6,0.1-0.3-0.3-0.2-0.7c0,0.1,0.1,0.2,0.2,0.3c0-0.1-0.1-0.2-0.2-0.3c0.2,0,0.4,0.1,0.6,0.3     C143.9,79.3,143.9,79.3,143.9,79.1c0,0-0.1,0-0.2-0.1C143.7,79.1,143.9,79.2,143.9,79.1C143.9,79.1,143.8,79.2,143.9,79.1z      M140.9,78.4c0.1,0.1,0.2,0.1,0.2,0.2c-0.1,0.1-0.2,0.1-0.2,0.1c0.4-0.1-0.9,0.6,0.3,0c0,0.5-0.2,0.4-0.6,0.5     C140.6,78.8,140.7,78.6,140.9,78.4C140.9,78.4,140.7,78.6,140.9,78.4z M141.5,79.5c0.1-0.1,0.1-0.1,0.2-0.2c0,0.5,0,0.7-0.4,0.3     C141.4,79.6,141.5,79.6,141.5,79.5z M141.2,79.5c-0.2-0.3-0.1-0.3,0.3-0.2C141.4,79.4,141.3,79.4,141.2,79.5     C141.2,79.4,141.3,79.4,141.2,79.5z M141.8,78.9c-0.1-0.1-0.3-0.2-0.4-0.3c0.1-0.1,0.3-0.2,0.4-0.2     C141.8,78.5,141.7,78.7,141.8,78.9C141.6,78.8,141.8,78.8,141.8,78.9z M141.6,79c-0.2,0-0.4,0-0.6,0     C141.1,78.3,141.4,78.9,141.6,79C141.5,79,141.5,78.9,141.6,79z M140.8,79.9c-0.1-0.2-0.2-0.4-0.2-0.6c0.4,0,0.3,0,0.6,0.3     c-0.1,0.1-0.3,0-0.4,0c0,0.1,0.1,0.2,0.3,0.1C141,79.7,140.9,79.8,140.8,79.9C140.7,79.7,140.9,79.8,140.8,79.9z M140.9,80     c0,0,0.2-0.1,0.2-0.2c0,0.1,0,0.2,0.1,0.3c-0.1-0.7,0.6-0.2,0.6,0.4C141.5,80.4,141.1,80.3,140.9,80z M141.8,78.1     c0,0.4-0.2,0.3-0.5,0.5c0-0.1-0.1-0.2-0.1-0.4c-0.1,0,0,0.2,0,0.3c-0.1-0.1-0.2-0.1-0.2-0.1C141,78.2,142,77.8,141.8,78.1     C141.8,78.2,141.8,78,141.8,78.1z M142.8,78.3c-0.1,0.1-0.2,0.1-0.2,0.2c0-0.1-0.1-0.2-0.1-0.2c-0.2,0.4-0.5,0.3-0.5-0.3     C142.3,77.9,142.6,78.1,142.8,78.3C142.7,78.3,142.6,78.1,142.8,78.3z M142.5,79c-0.1,0-0.2,0-0.3,0     C142.8,78.5,142.5,79,142.5,79z M142.6,79.3c0,0.1-0.1,0.2-0.1,0.2c-0.1-0.1-0.2-0.2-0.3-0.2C142.4,79.3,142.5,79.3,142.6,79.3     C142.6,79.4,142.6,79.3,142.6,79.3z M142,78.9c-0.1-0.4-0.1-0.6,0.4-0.3C142.2,78.7,142.1,78.8,142,78.9z M142,79.3     c0.1,0.1,0.3,0.2,0.4,0.3c-0.1,0.1-0.3,0.2-0.4,0.2C142,79.7,142,79.5,142,79.3C142.1,79.4,142,79.5,142,79.3z M142,80.4     c0-0.4,0-0.7,0.5-0.7c0,0.1,0,0.2,0,0.4c0,0,0-0.3,0-0.3c0.1,0.1,0.2,0.2,0.4,0.2C142.7,80.2,142.4,80.4,142,80.4     C142,80.3,142.3,80.4,142,80.4z M143,79.9c-0.1-0.1-0.2-0.1-0.3-0.2c0.2,0,0.3,0,0.2-0.1c-0.7,0-0.2-0.3,0.3-0.3     C143.2,79.5,143.1,79.7,143,79.9C143,79.8,143.1,79.7,143,79.9z M143,79.1c-0.3,0.1-0.4-0.1-0.4-0.4c0,0,0.5,0,0.4,0     c-0.1,0-0.2-0.1-0.3-0.1c0.1-0.1,0.2-0.1,0.3-0.2c0.2,0.2,0.3,0.4,0.3,0.7C143.2,79.1,143.1,79.1,143,79.1     C142.9,79.1,143.1,79.1,143,79.1z"/>
		</g>
		<g>
			<path fill="#FFFFFF" d="M157.1,90.4c-0.1,0-0.2-1.3-0.4-1.1c-0.3,0.1-0.7-0.6-0.5-0.8c0.1,0.1,0.2,0.2,0.3,0.3     c0-0.1-0.1-1.1-0.2-1.1c-0.2,0.3-0.5,0.5-0.7,0.8c0.2,0,0.3,0,0.5,0c0,0.1-0.1,0.3-0.1,0.4c-0.1-0.1-0.9-0.1-1,0     c-0.5,0.1-0.7,0.9-0.9,0.8c-0.1,0.1-0.4,0.8-0.1,0.8c0.2,0.4,0.1,0.5,0.4,0.9c0.1,0.1,0.5-0.2,0.5,0.3c0.2,0.1,0.4,0.2,0.6,0.2     c0-0.3,0.9-0.1,1.1-0.3C156.5,91.4,157.3,90.4,157.1,90.4C156.9,90.3,157.1,90.4,157.1,90.4z M156.7,89.6     c0.4-0.2,0.1,0.6-0.3,0.7c-0.1-0.2-0.1-0.5-0.3-0.5C156.4,89.4,156.2,89.7,156.7,89.6C156.7,89.5,156.6,89.6,156.7,89.6z      M156.1,90.4c-0.1,0-0.3-0.1-0.5-0.1C156.2,89.4,156.4,90.4,156.1,90.4z M156.2,90.6c0,0.1,0,0.1,0,0.1c-0.1,0.1-0.1,0.1-0.2,0.1     c0-0.1,0-0.2-0.1-0.3C156,90.4,156.1,90.5,156.2,90.6C156.2,90.6,156.1,90.6,156.2,90.6z M155.7,91c-0.3,0.5-0.2-0.5-0.2-0.5     C155.7,90.6,155.9,90.8,155.7,91C155.7,91,155.8,90.9,155.7,91z M154.9,90.8c-0.1-0.2,0.2-0.3,0.4-0.3c-0.1,0.1-0.1,0.3-0.1,0.4     C155.1,90.9,155,90.9,154.9,90.8C154.9,90.7,155,90.9,154.9,90.8z M154.8,90.4c-0.3-0.6,0.5-0.1,0.6-0.1     C155.1,90.3,154.9,90.6,154.8,90.4C154.8,90.4,154.8,90.4,154.8,90.4z M155.5,89.5c0.6-0.6,0,0.6,0,0.5     C155.6,90,155.4,89.7,155.5,89.5z M155.5,90.1C155.5,89.6,155.5,90.1,155.5,90.1C155.5,90,155.5,90.1,155.5,90.1z M155.4,90.2     c-0.1,0.1-0.2-0.1-0.3-0.1C155.2,90,155.4,90.2,155.4,90.2C155.4,90.2,155.4,90.2,155.4,90.2z M155.3,90.4     c-0.1,0.1-0.2,0.1-0.3,0.1C155.1,90.4,155.3,90.3,155.3,90.4C155.3,90.4,155.3,90.3,155.3,90.4z M155.8,90.4     c-0.1,0-0.1,0-0.1-0.1c0.1,0,0.2,0.1,0.3,0.1C155.9,90.4,155.9,90.4,155.8,90.4z M155.6,90.2c0,0,0.2-0.2,0.3-0.3     C155.8,90,155.7,90.2,155.6,90.2z M155.4,89.7c0,0.1,0,0.2,0,0.3C154.9,89.8,155,89.5,155.4,89.7z M155.3,90.7     c0-0.1,0-0.2,0.1-0.2c0,0,0,0,0.1,0C155.5,90.5,155.3,91,155.3,90.7z M155.8,90.7c-0.2-0.1-0.2-0.2-0.1-0.3     C155.7,90.5,155.8,90.8,155.8,90.7z M156.1,88.9c0,0.4,0.3,0.5-0.1,0.8c0-0.3-0.6-0.5-0.6-0.2C155.4,88.9,155.5,88.9,156.1,88.9     C156.1,89,156,88.9,156.1,88.9z M154.7,89C154.7,89,154.7,89,154.7,89c0.5,0,0.7,0.2,0.7,0.6c-0.2,0-0.5-0.2-0.5,0.2     C154.7,89.6,154.3,89.2,154.7,89z M154.1,90.2c-0.4-0.2,0-0.3,0.2-0.4c0.3-0.2,0.3-0.1,0.6,0.1c-0.1,0.1-0.5,0.3-0.3,0.5     C154.3,90.5,154.4,90.3,154.1,90.2C154.1,90.2,154.2,90.2,154.1,90.2z M154.4,91c-0.1,0.1-0.1,0.1-0.2,0c0.3-0.4,0-0.5,0.5-0.5     C154.5,91.1,155.3,90.9,154.4,91C154.4,91,154.6,91,154.4,91z M155.3,91.5c-0.2,0.3-0.7-0.5-0.2-0.5     C155.7,91,155.5,91.2,155.3,91.5C155.3,91.6,155.4,91.4,155.3,91.5z M156,91.4c-0.5-0.2-0.2-0.2,0-0.6     C156.5,90.9,156.5,91.6,156,91.4z M156.7,90.9c-0.3,0.1-0.2,0.1-0.5-0.1c0-0.1,0.1-0.2,0-0.3c0.4-0.4,0.7,0,0.7,0.4     C156.8,90.9,156.8,90.9,156.7,90.9z"/>
			<path fill="#FFFFFF" d="M154,89.8c-0.6-0.1-0.7-0.1-0.3-0.6c-0.1,0-1.1,0.1-1.1,0.2c0.3,0.2,0.5,0.5,0.8,0.7     C153.2,89.3,153.6,89.9,154,89.8z"/>
			<path fill="#FFFFFF" d="M155,92c0-0.1,0.1-0.3,0.1-0.4C155,91.8,155,91.9,155,92c-0.2-0.1-0.3-0.2-0.4-0.3c0,0.1,0.1,1.1,0.2,1.1     c0.2-0.3,0.5-0.5,0.7-0.8C155.3,92.1,155.2,92.1,155,92z"/>
			<path fill="#FFFFFF" d="M157.5,90.5c0,0.2,0,0.3,0,0.5c-0.1,0-0.4-0.1-0.5-0.1c0.6,0,0.4,0.2,0.2,0.5c0.1,0,1.1-0.1,1.1-0.2     C158,91,157.8,90.7,157.5,90.5C157.5,90.6,157.6,90.6,157.5,90.5z"/>
		</g>
		<g>
			<path fill="#FFFFFF" d="M158.6,80.2c-0.2-0.1,0.1-0.8-0.4-0.8c-0.2-0.2-0.6-0.8,0-0.4c0-0.2-0.1-0.5-0.1-0.7     c-0.2,0.2-0.4,0.4-0.5,0.5c0.9-0.2-0.2,0.6-0.4,0.2c-0.2,0.1-0.6,0.5-0.7,0.5l0,0l0,0c-0.1,0.1-0.3,0.6,0,0.6     c0.2,0.8,0.7,0.7,1.3,0.9C158,81.1,158.7,80.2,158.6,80.2C158.5,80.2,158.6,80.2,158.6,80.2z M158.4,79.6c0.3,0,0.1,0.4,0,0.4     c-0.3,0-0.1-0.3-0.4-0.3C158.2,79.5,158,79.8,158.4,79.6C158.4,79.6,158.3,79.7,158.4,79.6z M157.9,80.2c-0.1,0-0.2-0.1-0.3-0.1     C157.9,79.5,158.2,80.2,157.9,80.2z M158,80.4C158,80.4,158,80.4,158,80.4L158,80.4c-0.3,0,0,0.3-0.2-0.1     C157.9,80.2,158,80.3,158,80.4C158,80.4,158,80.4,158,80.4z M157.7,80.6c-0.1,0.1-0.1,0.1-0.2,0c0-0.1,0.1-0.1,0.1-0.3     C157.8,80.4,157.7,80.5,157.7,80.6C157.7,80.7,157.7,80.6,157.7,80.6z M157.1,80.5c-0.2-0.3,0.2,0,0.2-0.2     c-0.1,0.1-0.1,0.2,0,0.3C157.3,80.6,157.2,80.6,157.1,80.5z M157,80.2c-0.4-0.4,0.5-0.1,0.4-0.1C157.4,80.2,157,80.3,157,80.2     C157,80.2,157,80.3,157,80.2z M157.6,79.6c0.1-0.1,0.3,0,0.2,0.2c-0.1,0-0.2,0.2-0.3,0.2C157.5,79.9,157.5,79.7,157.6,79.6z      M157.5,80C157.5,79.7,157.5,80,157.5,80C157.5,80,157.5,80,157.5,80z M157.4,80.1c0,0-0.2-0.1-0.2-0.1     C157.4,80,157.4,80.1,157.4,80.1z M157.4,80.2c-0.1,0-0.2,0.1-0.2,0.1C157.2,80.2,157.4,80.1,157.4,80.2     C157.4,80.2,157.4,80.2,157.4,80.2z M157.7,80.2C157.7,80,157.8,80.2,157.7,80.2C157.7,80.2,157.8,80.2,157.7,80.2z M157.6,80.1     C157.6,80.1,157.6,80.1,157.6,80.1c0,0,0.1-0.2,0.2-0.2C157.8,80,157.6,80,157.6,80.1z M157.4,79.8c0,0.1,0,0.1,0,0.2     c-0.1,0-0.1-0.1-0.3-0.1c0-0.1,0-0.1,0-0.1C157.3,79.8,157.3,79.8,157.4,79.8z M157.4,80.5c0-0.1,0-0.1,0.1-0.2c0,0,0,0,0.1,0     C157.5,80.4,157.5,80.5,157.4,80.5C157.4,80.4,157.4,80.5,157.4,80.5z M157.7,80.5c-0.3-0.1,0-0.2,0-0.2     C157.7,80.4,157.7,80.4,157.7,80.5C157.7,80.5,157.7,80.5,157.7,80.5z M157.9,79.2c0,0.3,0,0.4,0,0.6c-0.1-0.2-0.2-0.5-0.4-0.2     C157.4,79.1,157.7,79.2,157.9,79.2C157.9,79.3,157.9,79.2,157.9,79.2z M156.9,79.3C156.9,79.2,157,79.2,156.9,79.3     c0.3,0,0.5,0.1,0.5,0.4c-0.1,0-0.3-0.1-0.3,0.1C156.8,79.7,156.8,79.4,156.9,79.3z M156.6,80.1c0,0,0.1-0.5,0.6-0.2     c0,0.1-0.3,0.2-0.2,0.4C156.6,80.3,157,80.2,156.6,80.1C156.5,80.1,156.7,80.1,156.6,80.1z M156.8,80.7c-0.2,0,0-0.3,0-0.3     c0.3,0,0.1,0.1,0.3,0.3C157,80.8,157.1,80.7,156.8,80.7z M157.4,81c-0.2,0.2-0.4-0.4-0.1-0.4C157.7,80.7,157.5,80.8,157.4,81     C157.3,81.1,157.4,81,157.4,81z M157.8,81c-0.4-0.2,0-0.1,0-0.4C158.1,80.3,158.4,81.2,157.8,81z M158.4,80.6     c-0.2,0.1-0.2,0-0.3,0c0,0,0.1-0.2,0-0.2C158.3,80.1,158.7,80.4,158.4,80.6z"/>
			<path fill="#FFFFFF" d="M156.4,79.8c-0.4,0-0.5-0.1-0.2-0.4c-0.2,0-0.5,0.1-0.7,0.1c0.2,0.2,0.4,0.4,0.5,0.5     C155.9,79.6,156.2,79.7,156.4,79.8z"/>
			<path fill="#FFFFFF" d="M157.2,81.4c0-0.1,0-0.2,0.1-0.2c-0.1,0.2,0,0.3-0.3,0c0,0.2,0.1,0.5,0.1,0.7c0.2-0.2,0.4-0.4,0.5-0.5     C157.4,81.4,157.3,81.4,157.2,81.4z"/>
			<path fill="#FFFFFF" d="M158.9,80.3c0,0.1,0,0.2,0,0.3c-0.1,0-0.2-0.1-0.3-0.1c0,0,0.3,0.1,0.3,0.1c0,0.1-0.1,0.2-0.2,0.3     c0.2,0,0.5-0.1,0.7-0.1C159.3,80.7,159.1,80.5,158.9,80.3C159,80.4,159,80.4,158.9,80.3z"/>
		</g>
		<g>
			<path fill="#FFFFFF" d="M152.6,83.3c0,0,0.1-0.1,0.1-0.1c-0.2,0.2-0.6,0.1-0.7,0.1c0.3-0.1,0.7-0.4,0.8-0.7     c-0.4-0.1-0.8,0.4-0.9,0.7c-0.3,0,0-0.4,0.1-0.5c0,0,0,0-0.1-0.1c-0.1,0.1-0.2,0.3-0.3,0.5c0-0.4-0.2-0.8-0.5-1.1     c0.2-0.1,0.4,0,0.6,0.1c0,0,0-0.1,0-0.1c-0.2-0.1-0.3-0.1-0.5-0.2c0.2-0.2,0.8,0.2,1.1,0.2c0-0.1,0-0.3,0-0.4     c-0.2,0.1-0.6,0-0.8,0c0.2-0.1,0.4-0.4,0.6-0.4c-0.2-0.1-0.6,0.1-0.8,0.2c0.1-0.2,0.2-0.5,0.2-0.7c-0.6-0.1-0.2,0.6-0.6,0.9     c0-0.2,0-0.3,0-0.5c0,0-0.1,0-0.1,0c0,0.2,0,0.4,0,0.5c-0.4-0.3-0.9-0.6-1.4-0.6c0-0.2,0.4-0.2,0.5-0.4c0,0,0,0-0.1-0.1     c-0.1,0.1-0.3,0.2-0.5,0.3c0-0.5,0.5-0.5,0.7-0.9c-0.1,0-0.2-0.1-0.3-0.1c-0.1,0.3-0.3,0.4-0.5,0.7c0-0.2-0.1-0.5-0.1-0.7     c0,0.2,0,0.4,0,0.6c-0.2-0.2-0.4-0.3-0.6-0.5c-0.1,0.1-0.1,0.2-0.2,0.2c0.5,0.3,0.8,0.2,0.8,0.8c-0.2-0.1-0.3-0.2-0.5-0.2     c0.2,0.1,0.3,0.3,0.5,0.4c-0.4,0-1.3,0.7-1.6,0.6c0.1-0.3,0-0.7-0.1-0.9c-0.1,0.2,0,0.6,0,0.8c-0.4-0.2-0.6-1.1-1-0.8     c0.1,0.2,0.3,0.3,0.4,0.5c-0.2-0.1-0.4-0.2-0.7-0.2c0.2,0.1,0.4,0.2,0.6,0.3c-0.2,0-0.3,0-0.5,0c0,0.1,0,0.2,0,0.3     c0.4-0.2,0.6-0.2,0.9,0c-0.3,0.1-0.6,0.2-0.7,0.4c0.3-0.2,0.6-0.4,0.9-0.3c-0.3,0.3-0.4,0.7-0.5,1.2c0,0.1-0.3-0.5-0.3-0.5     c0,0,0,0-0.1,0.1c0.1,0.1,0.2,0.3,0.3,0.4c-0.4,0-0.5-0.3-0.8-0.6c-0.1,0.1-0.1,0.2-0.2,0.3c0.2,0.1,0.4,0.2,0.5,0.4     c-0.2,0-0.4,0-0.5,0c0.2,0.1,0.4,0.1,0.6,0.1c-0.2,0.2-0.4,0.2-0.6,0.4c-0.1,0.2,0.9-0.3,1-0.3c-0.1,0.2-0.4,0.3-0.3,0.6     c0.1-0.1,0.3-0.4,0.4-0.6c0.1,1.1,0.8,1.1-0.5,1.1c0,0,0,0.1,0,0.1c0.2,0,0.5,0,0.7,0c-0.3,0.3-0.8,0.3-1.3,0.3     c0,0.1,0.1,0.2,0.1,0.3c0.2-0.2,0.7-0.3,0.9-0.3c-0.1,0.1-0.2,0.3-0.3,0.3c0,0,0.2-0.2,0.3-0.3c0,0.3,0,0.5,0,0.8     c0.1,0,0.3-0.1,0.4-0.1c-0.3-0.3-0.4-0.8,0-1c0.1,0.2,0.2,0.4,0.3,0.6c0,0-0.1-0.7-0.1-0.7c0.4,0.4,0.9,0.7,1.5,0.7     c0,0.1-0.3,0.2-0.4,0.3c0,0,0,0,0.1,0.1c0.1-0.1,0.2-0.2,0.4-0.2c-0.2,0.2-0.4,0.4-0.6,0.6c0.1,0.1,0.2,0.2,0.3,0.2     c0.1-0.2,0.2-0.4,0.3-0.6c0,0.2,0,0.4,0.1,0.7c0-0.2,0.1-0.5,0.1-0.7c0.2,0.2,0.4,0.4,0.6,0.6c0.1-0.1,0.2-0.2,0.3-0.3     c-0.3-0.1-0.5-0.3-0.8-0.4c0.1,0,0.5,0.2,0.5,0c-0.1,0-0.3-0.1-0.6-0.1c0,0.1,1.2-0.5,1.3-0.6c0.6-0.6,0.3,0.2,0.4,0.5     c0,0,0.1,0,0.1,0c-0.1-0.2,0-0.4,0-0.6c0.6,0.4,0,0.5,0.4,1.1c0.3-0.2,0.2-0.6,0-0.8c0.2,0.1,0.5,0.3,0.7,0.4     c-0.2-0.2-0.4-0.3-0.6-0.5c0.1,0,0.3,0,0.4,0c0-0.1,0-0.2,0-0.3c-0.3,0.1-0.5,0.3-0.7,0c0.1,0,0.4,0,0.4-0.2     c-1,0.3-0.4-0.4-0.4-1.1c0.1,0.2,0.2,0.4,0.4,0.5c0,0,0-0.1,0-0.1c-0.1-0.1-0.2-0.2-0.3-0.4c0.4,0,0.5,0.3,0.8,0.5     c0.3-0.4-0.1-0.3-0.4-0.6C152.4,83.6,152.5,83.5,152.6,83.3z M147.9,82.2c0.1,0.1,0.3,0.2,0.4,0.3c-0.1,0.1-0.2,0.1-0.4,0.1     c0,0,0,0.1,0,0.1c0.1,0,0.3-0.1,0.4-0.2c-0.4,0.6,0,0.7-0.9,0.7C147.4,82.9,147.6,82.5,147.9,82.2     C147.9,82.2,147.6,82.5,147.9,82.2z M148.9,83.9c0.1-0.1,0.2-0.2,0.3-0.3c0,0.3,0,0.5,0,0.8c-0.3,0-0.5-0.1-0.7-0.3     C148.7,84.1,148.8,84,148.9,83.9z M148.4,83.9c0-0.1-0.1-0.2-0.1-0.4c0.2,0,0.4,0,0.6,0C148.6,83.7,148.5,83.8,148.4,83.9     C148.3,83.8,148.5,83.8,148.4,83.9z M149.2,82.9c-0.2-0.2-0.4-0.3-0.6-0.5c0.2-0.2,0.4-0.3,0.7-0.3     C149.3,82.4,149.3,82.7,149.2,82.9C149,82.7,149.2,82.8,149.2,82.9z M149.1,83.2c-0.3,0-0.6,0-0.9,0c0-0.2,0.1-0.4,0.2-0.6     C148.6,82.8,148.8,83,149.1,83.2C148.8,83.2,148.8,83,149.1,83.2z M147.8,84.5c-0.2-0.3-0.3-0.6-0.3-1c0.8,0.1,0.5-0.2,0.9,0.5     c-0.3,0.1-0.4,0-0.7,0c0,0,0,0.1,0,0.1c0.2,0,0.3,0,0.5,0.1C148,84.2,147.9,84.4,147.8,84.5C147.6,84.2,147.9,84.4,147.8,84.5z      M147.9,84.7c0.1-0.1,0.2-0.2,0.3-0.3c0,0.2,0,0.3,0.1,0.4c0,0,0,0,0.1-0.1c-0.2-0.2-0.2-0.4,0-0.5c0.2,0.2,0.5,0.3,0.7,0.3     c0,0.3,0,0.6,0.1,0.8C148.7,85.3,148.3,85.1,147.9,84.7z M149.3,81.6c0,0.7-0.4,0.3-0.8,0.7c0-0.2-0.1-0.4-0.1-0.6     c-0.2,0.1,0,0.3,0,0.5c-0.1-0.1-0.2-0.2-0.4-0.3c0.3-0.3,0.8-0.6,1.3-0.6C149.3,81.5,149.3,81.5,149.3,81.6     C149.3,81.7,149.3,81.5,149.3,81.6z M150.8,81.9c-0.1,0.1-0.3,0.2-0.4,0.3c0-0.1,0-0.2,0-0.3c0,0-0.1,0-0.1,0     c-0.1,0.3,0.1,0.3-0.1,0.5c-0.5-0.5-0.7-0.1-0.7-0.9C150.1,81.4,150.5,81.6,150.8,81.9C150.8,82,150.5,81.6,150.8,81.9z      M150.3,83.2c-0.2,0-0.3,0-0.5,0c0.2-0.2,0.4-0.3,0.6-0.5c0.1,0.2,0.2,0.3,0.2,0.5C150.5,83.2,150.4,83.2,150.3,83.2z      M150.6,83.5c-0.1,0.1-0.1,0.3-0.2,0.4c-0.1-0.1-0.3-0.3-0.5-0.4C150.2,83.5,150.4,83.5,150.6,83.5     C150.6,83.6,150.5,83.5,150.6,83.5z M149.6,82.9c0-0.2,0-0.5,0-0.7c0.2,0,0.4,0.1,0.6,0.3C150,82.6,149.8,82.7,149.6,82.9z      M149.6,83.6c0.2,0.2,0.5,0.3,0.7,0.5c-0.2,0.2-0.4,0.3-0.7,0.3C149.6,84.2,149.6,83.9,149.6,83.6     C149.8,83.8,149.6,83.9,149.6,83.6z M149.6,85.3c0-0.2,0-0.4,0-0.5c0-0.5,0.4-0.3,0.7-0.6c0.2,0.2,0,0.4,0.1,0.6c0,0,0.1,0,0.1,0     c0-0.2,0-0.3,0-0.5c0.2,0.1,0.4,0.2,0.5,0.4C150.6,85.1,150.1,85.3,149.6,85.3C149.6,85.2,150.2,85.3,149.6,85.3z M151.2,84.5     c-0.2-0.1-0.3-0.2-0.5-0.3c-0.6,0.2,0.5-0.2,0.4-0.1c-0.2,0-0.4,0.1-0.6,0c0.4-0.5,0.3-0.4,1-0.4     C151.4,83.9,151.3,84.2,151.2,84.5C151.1,84.4,151.3,84.2,151.2,84.5z M151.1,83.2c-0.7-0.1-0.3-0.1-0.6-0.6     c0.1-0.1,0.4,0.1,0.6,0.1c0,0,0-0.1,0-0.1c-0.2,0-0.3-0.1-0.5-0.1c0.1-0.1,0.3-0.2,0.4-0.3c0.3,0.3,0.4,0.7,0.4,1.1     C151.4,83.3,151.2,83.3,151.1,83.2C151,83.2,151.3,83.3,151.1,83.2z"/>
		</g>
	</g>
</g>
<g>
	<path fill="#B8F1EC" d="M125.2,117.6c1.2-2.9-1.1-4.9-3.8-5.4c-0.7-0.1-1.5-0.2-2.3-0.1c-0.5,0-1.4,0.4-1.7,0c-0.4-0.7-1.3-1-2-1.1   c-2.3-0.4-11.2,1.4-7.7,5.2c-2.5-0.4-5.3,0.2-7.1,2c-2,2-2.2,5.3-1.1,7.7c1,2.1,3.7,2.6,5.8,3c1.7,0.3,3.5,0.5,5.2,0.7   c4.4,0.3,9,0.4,13.4-0.2c1.8-0.2,3.6-0.6,5.2-1.4c0.8-0.5,3.2-3.1,0.8-3.3C134.6,123.9,130.7,114.1,125.2,117.6   C127.1,113.2,130.8,114,125.2,117.6z"/>
	<g>
		<g>
			<path fill="#1C2829" d="M112.1,118.8c-0.6-0.3-0.3-1-0.1-1.5c0,0,0.1,0,0.1,0c-0.8,1.7,1,1.7,1.8,0.6c0,0,0,0,0.1,0.1     C113.6,118.5,112.7,119,112.1,118.8C112.1,118.7,112.7,119,112.1,118.8z"/>
		</g>
		<g>
			<g>
				<path fill="#1C2829" d="M120.3,120.4c-0.4-0.2-0.2-0.7-0.1-1c0,0,0.1,0,0.1,0c-0.6,1.4,1,0.8,1.6,0.4c0,0,0,0.1,0,0.1      C121.5,120.2,120.8,120.6,120.3,120.4C120.3,120.4,120.8,120.6,120.3,120.4z"/>
			</g>
		</g>
		<path fill="#FFC5C2" d="M110.4,120.3c1.8-0.1,0.1-2.2-1.1-0.9C109.2,119.6,108.6,120.4,110.4,120.3z"/>
		<path fill="#FFC5C2" d="M120.7,121c-1.8,0.3-1,1.4,0.5,1.3C122.9,122.3,122.1,120.8,120.7,121C119.7,121.2,120.9,121,120.7,121z"/>
		<path fill="#1C2829" d="M115.7,122.2c0.7,0.1,0.3-0.8-0.2-0.8C115.1,121.7,115.3,122.2,115.7,122.2    C116.4,122.3,115.1,122.2,115.7,122.2z"/>
	</g>
</g>
<path fill="#FFFFFF" d="M65.8,39.5c-0.1,1.1,1.6,1.1,1.6,0C67.5,38.5,65.8,38.5,65.8,39.5C65.7,40,65.8,39.1,65.8,39.5z"/>
<path fill="#FFFFFF" d="M11.2,41.6c0,0.5,0.6,0.5,0.6,0C11.9,41.2,11.3,41.2,11.2,41.6C11.2,41.8,11.2,41.4,11.2,41.6z"/>
<path fill="#FFFFFF" d="M155.4,47.7c0,0.5,0.6,0.5,0.6,0C156,47.3,155.4,47.3,155.4,47.7z"/>
<path fill="#FFFFFF" d="M3,91.8c0,0.5,0.6,0.5,0.6,0C3.6,91.3,3,91.3,3,91.8z"/>
<path fill="#FFFFFF" d="M111.5,159.6c-1.1,0.1-1,1.7,0.1,1.7C112.6,161.2,112.5,159.6,111.5,159.6z"/>
<path fill="#FFFFFF" d="M4.4,31c1.1,0,1.1-1.7,0-1.6C3.4,29.4,3.4,31,4.4,31z"/>
<path fill="#FFFFFF" d="M13.9,145c0,1.1-1.6,1.1-1.6,0C12.3,143.9,13.9,143.9,13.9,145z"/>
<path fill="#FFFFFF" d="M60.4,156.1c0,0.4-0.7,0.5-0.7,0S60.4,155.7,60.4,156.1z"/>
<path fill="#FFFFFF" d="M99,105.7c0.5,0,0.5-0.6,0-0.6C98.5,105.1,98.5,105.8,99,105.7C99.2,105.7,98.8,105.7,99,105.7z"/>
<path fill="#FFFFFF" d="M15.6,109.8c0,0.4-0.7,0.5-0.7,0C14.9,109.4,15.6,109.4,15.6,109.8z"/>
<path fill="#FFFFFF" d="M9.1,151.7c0,0.4-0.7,0.5-0.7,0C8.4,151.3,9.1,151.3,9.1,151.7z"/>
<path fill="#FFFFFF" d="M136.2,48.2c1.1,0,1.1-1.7,0-1.6C135.1,46.5,135.1,48.2,136.2,48.2z"/>
<path fill="#FFFFFF" d="M10.5,102.1c1.1,0,1.1-1.7,0-1.6C9.4,100.4,9.4,102.1,10.5,102.1z"/>
<path fill="#FFFFFF" d="M106,169.4c1.1,0,1.1-1.7,0-1.6C104.9,167.7,104.9,169.4,106,169.4z"/>
<path fill="#FFFFFF" d="M119.2,119.6c-1.1,0-1,1.7,0,1.7C120.3,121.3,120.2,119.6,119.2,119.6z"/>
<path fill="#FFFFFF" d="M52.5,120.5c-1.1,0-1,1.7,0,1.7C53.6,122.2,53.5,120.5,52.5,120.5z"/>
<path fill="#FFFFFF" d="M8.4,122.7c-1.1,0-1,1.7,0,1.7C9.5,124.3,9.5,122.6,8.4,122.7C8,122.7,8.9,122.6,8.4,122.7z"/>
<path fill="#FFFFFF" d="M4.4,55c0-1.1,1.6-1.1,1.6,0C6.1,56,4.5,56,4.4,55z"/>
<path fill="#FFFFFF" d="M5.7,68.6c0-0.4,0.7-0.5,0.7,0C6.4,69,5.7,69.1,5.7,68.6z"/>
<path fill="#FFFFFF" d="M54.4,109.5c0-0.4,0.7-0.5,0.7,0C55.2,109.9,54.5,110,54.4,109.5z"/>
<path fill="#FFFFFF" d="M71.8,115.6c0-0.4,0.7-0.5,0.7,0S71.8,116,71.8,115.6z"/>
<path fill="#FFFFFF" d="M57.2,146c0-0.4,0.7-0.5,0.7,0C57.9,146.4,57.2,146.4,57.2,146z"/>
<path fill="#FFFFFF" d="M131.5,111c0-0.4,0.7-0.5,0.7,0C132.2,111.4,131.5,111.4,131.5,111z"/>
<path fill="#FFFFFF" d="M92.2,158.4c0-0.4,0.7-0.5,0.7,0C92.9,158.8,92.2,158.9,92.2,158.4z"/>
<path fill="#FFFFFF" d="M70.9,128.3c-0.5,0-0.5,0.7,0,0.6C71.4,128.9,71.4,128.3,70.9,128.3z"/>
<path fill="#FFFFFF" d="M115.9,91.7c0-0.4,0.7-0.5,0.7,0C116.6,92.1,115.9,92.1,115.9,91.7z"/>
<path fill="#FFFFFF" d="M107.8,102.6c-0.5,0-0.5,0.6,0,0.6C108.2,103.3,108.3,102.6,107.8,102.6z"/>
<path fill="#FFFFFF" d="M43.3,41c-0.5,0-0.5,0.6,0,0.6C43.7,41.6,43.7,40.9,43.3,41C43.1,41,43.5,41,43.3,41z"/>
<path fill="#FFFFFF" d="M86.6,98.5c-0.5,0-0.5,0.6,0,0.6C87.1,99.1,87.1,98.5,86.6,98.5z"/>
<path fill="#FFFFFF" d="M97.1,123.2c-0.5,0-0.5,0.6,0,0.6C97.6,123.9,97.6,123.2,97.1,123.2z"/>
<path fill="#FFFFFF" d="M78.5,122.8c-0.5,0-0.5,0.7,0,0.6C79,123.4,79,122.8,78.5,122.8z"/>
<path fill="#FFFFFF" d="M112.8,108.2c0-0.4,0.7-0.5,0.7,0S112.8,108.6,112.8,108.2z"/>
<path fill="#FFFFFF" d="M27.9,35.5c-1.1,0-1,1.7,0,1.7C29,37.1,29,35.5,27.9,35.5z"/>
<path fill="#FFFFFF" d="M18.6,155.5c0,1.1,1.7,1.1,1.7,0C20.3,154.5,18.7,154.4,18.6,155.5C18.6,156,18.7,155,18.6,155.5z"/>
<path fill="#FFFFFF" d="M25.1,164.7c-0.1,1.1,1.6,1.1,1.6,0C26.8,163.7,25.1,163.6,25.1,164.7z"/>
<path fill="#FFFFFF" d="M92,147.7c0,0.5,0.6,0.5,0.6,0C92.6,147.2,92,147.2,92,147.7C92,147.9,92,147.5,92,147.7z"/>
<path fill="#FFFFFF" d="M33.1,150.8c0,0.5,0.6,0.5,0.6,0C33.8,150.4,33.2,150.4,33.1,150.8C33.1,151,33.2,150.7,33.1,150.8z"/>
<path fill="#FFFFFF" d="M28.8,159.5c0,0.5,0.6,0.5,0.6,0C29.5,159.1,28.9,159.1,28.8,159.5C28.8,159.7,28.8,159.3,28.8,159.5z"/>
<path fill="#FFFFFF" d="M115.8,94.5c-0.4,0-0.4-0.7,0-0.7C116.2,93.8,116.2,94.5,115.8,94.5z"/>
<path fill="#FFFFFF" d="M44.9,160.2c0,0.5,0.6,0.5,0.6,0C45.5,159.8,44.9,159.8,44.9,160.2z"/>
<path fill="#FFFFFF" d="M20.1,116.9c-0.1,1.1,1.6,1.1,1.6,0C21.7,115.9,20.2,115.8,20.1,116.9z"/>
<path fill="#FFFFFF" d="M91.1,132c0,1.1,1.6,1.1,1.6,0C92.7,131,91.1,131,91.1,132z"/>
<path fill="#FFFFFF" d="M45.5,114.7c-0.1,1.1,1.6,1.1,1.6,0C47.2,113.7,45.6,113.6,45.5,114.7z"/>
<path fill="#FFFFFF" d="M93.4,85c0,0.5,0.6,0.5,0.6,0C94,84.5,93.4,84.5,93.4,85z"/>
<path fill="#FFFFFF" d="M89.5,103.3c0,0.5,0.6,0.5,0.6,0C90.1,102.9,89.6,102.9,89.5,103.3C89.5,103.5,89.5,103.1,89.5,103.3z"/>
<path fill="#FFFFFF" d="M153.7,110.8c0,0.5,0.6,0.5,0.6,0C154.3,110.4,153.7,110.4,153.7,110.8z"/>
<path fill="#FFFFFF" d="M129.5,103.7c0,0.5,0.6,0.5,0.6,0C130.1,103.2,129.5,103.2,129.5,103.7z"/>
<path fill="#FFFFFF" d="M152.2,118.5c0,0.5,0.6,0.5,0.6,0C152.9,118.1,152.2,118.1,152.2,118.5z"/>
<path fill="#FFFFFF" d="M97.6,78c0.3-0.1,0.3,0.3,0.1,0.5C97.5,78.7,96.8,78.4,97.6,78z"/>
<path fill="#FFFFFF" d="M82.6,101.2c0,0.5,0.6,0.5,0.6,0C83.2,100.8,82.6,100.8,82.6,101.2z"/>
<path fill="#FFFFFF" d="M4.1,113.4c0,0.5,0.6,0.5,0.6,0C4.8,113,4.1,113,4.1,113.4z"/>
<path fill="#FFFFFF" d="M102.9,124.1c0,0.5,0.6,0.5,0.6,0C103.5,123.6,102.9,123.6,102.9,124.1z"/>
<path fill="#FFFFFF" d="M144,51.1c-0.5,0-0.4,0.6,0,0.6C144.5,51.8,144.4,51.1,144,51.1z"/>
<path fill="#FFFFFF" d="M139.3,63.7c-0.5,0-0.4,0.6,0,0.6C139.8,64.3,139.7,63.6,139.3,63.7C139.1,63.7,139.5,63.6,139.3,63.7z"/>
<path fill="#FFFFFF" d="M136.2,91c-0.5,0-0.4,0.6,0,0.6C136.8,91.6,136.7,91,136.2,91z"/>
<path fill="#FFFFFF" d="M190.2,45.3c-0.5,0-0.5,0.7,0,0.6C190.7,45.9,190.7,45.3,190.2,45.3z"/>
<path fill="#FFFFFF" d="M158.9,74.6c-0.1,1.1,1.6,1.1,1.6,0C160.5,73.6,158.9,73.5,158.9,74.6C158.9,75,158.9,74.1,158.9,74.6z"/>
<path fill="#FFFFFF" d="M108.5,75.3c-0.1,1.1,1.6,1.1,1.6,0C110.2,74.3,108.5,74.3,108.5,75.3C108.5,75.8,108.5,74.9,108.5,75.3z"/>
<path fill="#FFFFFF" d="M12.6,116.7c0,0.5,0.6,0.5,0.6,0C13.2,116.3,12.6,116.2,12.6,116.7z"/>
<path fill="#FFFFFF" d="M56.5,33.8c-1.1,0-1,1.7,0,1.7C57.6,35.5,57.6,33.8,56.5,33.8C56.1,33.8,57,33.8,56.5,33.8z"/>
<path fill="#FFFFFF" d="M180.6,40.2c-0.1,1.1,1.6,1.1,1.6,0C182.3,39.2,180.7,39.1,180.6,40.2z"/>
<path fill="#FFFFFF" d="M160.8,42.9c-0.1,1.1,1.6,1.1,1.6,0C162.5,41.9,160.9,41.9,160.8,42.9z"/>
<path fill="#FFFFFF" d="M85.2,71.7c0,0.5,0.6,0.5,0.6,0C85.9,71.2,85.2,71.2,85.2,71.7z"/>
<path fill="#FFFFFF" d="M78.6,63.1c0,0.5,0.6,0.5,0.6,0C79.3,62.6,78.6,62.6,78.6,63.1z"/>
<path fill="#FFFFFF" d="M110.1,39.5c1.1,0.1,1.1-1.6,0.1-1.7C109.1,37.8,109,39.5,110.1,39.5C110.6,39.6,109.6,39.5,110.1,39.5z"/>
<path fill="#FFFFFF" d="M77.6,40.5c1.1,0.1,1.1-1.6,0.1-1.7C76.6,38.8,76.5,40.5,77.6,40.5z"/>
<path fill="#FFFFFF" d="M146.2,41.3c0.4,0,0.5-0.6,0-0.6C145.8,40.7,145.7,41.3,146.2,41.3z"/>
<path fill="#FFFFFF" d="M85.9,40.7c0.4,0,0.5-0.6,0-0.6C85.5,40,85.4,40.7,85.9,40.7z"/>
<path fill="#FFFFFF" d="M81.4,50.4c0.4,0,0.5-0.6,0-0.6C81.1,49.7,81,50.4,81.4,50.4z"/>
<path fill="#FFFFFF" d="M135.2,36.3c0,1.1,1.7,1.1,1.6,0C136.8,35.2,135.2,35.2,135.2,36.3z"/>
<path fill="#FFFFFF" d="M119.7,38.3c0,1.1,1.7,1.1,1.6,0C121.3,37.2,119.7,37.2,119.7,38.3z"/>
<path fill="#FFFFFF" d="M169.2,39.9c-0.5,0-0.5,0.6,0,0.6C169.6,40.5,169.6,39.9,169.2,39.9z"/>
<path fill="#FFFFFF" d="M180.6,63.9c1.1,0,1-1.7,0-1.7C179.6,62.3,179.6,63.9,180.6,63.9z"/>
<path fill="#FFFFFF" d="M157.8,115.4c1.1,0,1-1.7,0-1.7C156.7,113.7,156.7,115.4,157.8,115.4z"/>
<path fill="#FFFFFF" d="M114.8,147.6c0,0.4-0.7,0.5-0.7,0S114.8,147.2,114.8,147.6z"/>
<path fill="#FFFFFF" d="M117.2,137.6c0.5,0,0.5-0.6,0-0.6C116.7,136.9,116.7,137.6,117.2,137.6C117.4,137.6,117,137.6,117.2,137.6z"/>
<path fill="#FFFFFF" d="M165.8,65.4c0.5,0,0.5-0.6,0-0.6C165.3,64.8,165.3,65.5,165.8,65.4C166,65.4,165.6,65.4,165.8,65.4z"/>
<path fill="#FFFFFF" d="M112.2,132.1c0,0.4-0.7,0.5-0.7,0C111.5,131.6,112.2,131.6,112.2,132.1z"/>
<path fill="#FFFFFF" d="M109.2,145.7c0.4,0,0.4,0.7,0,0.7C108.7,146.4,108.8,145.7,109.2,145.7z"/>
<path fill="#FFFFFF" d="M78.9,119.5c0-1.1-1.7-1.1-1.7,0C77.2,120.6,78.9,120.6,78.9,119.5z"/>
<path fill="#FFFFFF" d="M193.4,61.3c0-1.1-1.6-1.1-1.6,0C191.8,62.3,193.4,62.3,193.4,61.3z"/>
<path fill="#FFFFFF" d="M173,51.1c0-0.5-0.6-0.5-0.6,0C172.4,51.6,173,51.6,173,51.1C173,50.9,173,51.3,173,51.1z"/>
<path fill="#FFFFFF" d="M117.8,157.6c0-0.5-0.6-0.5-0.6,0C117.1,158.1,117.7,158,117.8,157.6C117.8,157.4,117.7,157.8,117.8,157.6z"/>
<path fill="#FFFFFF" d="M95.5,136.5c0-0.5-0.6-0.5-0.6,0C94.9,137,95.5,137,95.5,136.5z"/>
<path fill="#FFFFFF" d="M84.1,144.7c0-0.5-0.6-0.5-0.6,0C83.4,145.1,84.1,145.1,84.1,144.7z"/>
<path fill="#FFFFFF" d="M78.3,128c0-0.5-0.6-0.5-0.6,0C77.6,128.5,78.3,128.5,78.3,128z"/>
<path fill="#FFFFFF" d="M169.6,64.6c-0.3,0.1-0.3-0.3-0.1-0.5C169.7,63.8,170.3,64.1,169.6,64.6C169.5,64.6,169.7,64.5,169.6,64.6z"/>
<path fill="#FFFFFF" d="M196.9,83.1c0-0.5-0.6-0.5-0.6,0C196.3,83.5,196.9,83.5,196.9,83.1z"/>
<path fill="#FFFFFF" d="M164.9,157.2c0.5,0,0.4-0.6,0-0.6C164.4,156.6,164.5,157.2,164.9,157.2z"/>
<path fill="#FFFFFF" d="M28.2,113.6c1.1-0.1,1-1.7-0.1-1.7C27.1,112,27.2,113.6,28.2,113.6z"/>
<path fill="#FFFFFF" d="M82.9,86.6c1.1-0.1,1-1.7-0.1-1.7C81.8,85,81.9,86.7,82.9,86.6z"/>
<path fill="#FFFFFF" d="M104.1,154.2c0.5,0,0.4-0.6,0-0.6C103.6,153.6,103.7,154.2,104.1,154.2z"/>
<path fill="#FFFFFF" d="M80.6,163.6c0.5,0,0.4-0.6,0-0.6C80,163,80.1,163.6,80.6,163.6z"/>
<path fill="#FFFFFF" d="M159.4,151.8c0.5,0,0.5-0.7,0-0.6C158.9,151.2,158.9,151.8,159.4,151.8z"/>
<path fill="#FFFFFF" d="M173.9,68.6c0-0.5-0.6-0.5-0.6,0C173.2,69.1,173.9,69.1,173.9,68.6z"/>
<path fill="#FFFFFF" d="M112.5,165.6c-0.4,0-0.5,0.6,0,0.6C112.9,166.2,113,165.6,112.5,165.6z"/>
<path fill="#FFFFFF" d="M195.8,117.4c0.1-1.1-1.6-1.1-1.6,0C194.2,118.4,195.8,118.4,195.8,117.4z"/>
<path fill="#FFFFFF" d="M186.3,141.8c0.1-1.1-1.6-1.1-1.6,0C184.6,142.8,186.3,142.8,186.3,141.8  C186.3,141.3,186.3,142.2,186.3,141.8z"/>
<path fill="#FFFFFF" d="M169.7,88.8c0.1-1.1-1.6-1.1-1.6,0C168,89.8,169.7,89.9,169.7,88.8C169.7,88.4,169.7,89.3,169.7,88.8z"/>
<path fill="#FFFFFF" d="M174,136.6c0-0.5-0.6-0.5-0.6,0C173.3,137,174,137,174,136.6z"/>
<path fill="#FFFFFF" d="M162.1,105.7c0-0.5-0.6-0.5-0.6,0C161.4,106.2,162,106.2,162.1,105.7C162.1,105.5,162,105.9,162.1,105.7z"/>
<path fill="#FFFFFF" d="M175.7,162.1c1.1-0.1,1-1.7-0.1-1.7C174.6,160.5,174.7,162.1,175.7,162.1z"/>
<path fill="#FFFFFF" d="M175.4,122c-1.1,0-1.1,1.7,0,1.6C176.5,123.6,176.4,121.9,175.4,122C174.9,122,175.8,121.9,175.4,122z"/>
<path fill="#FFFFFF" d="M99.5,135.6c0-0.4,0.7-0.5,0.7,0C100.2,136.1,99.5,136.1,99.5,135.6z"/>
<path fill="#FFFFFF" d="M75,103.7c-0.5,0-0.5,0.6,0,0.6C75.5,104.3,75.5,103.7,75,103.7z"/>
<path fill="#FFFFFF" d="M91.3,122.4c1.1,0,1-1.7,0-1.7C90.2,120.8,90.2,122.5,91.3,122.4C91.7,122.4,90.8,122.4,91.3,122.4z"/>
<path fill="#FFFFFF" d="M108.4,166.3c1.1,0,1-1.7,0-1.7C107.3,164.7,107.3,166.4,108.4,166.3C108.8,166.3,107.9,166.4,108.4,166.3z"/>
<path fill="#FFFFFF" d="M188.2,113.5c0,1.1-1.6,1.1-1.6,0S188.2,112.4,188.2,113.5z"/>
<path fill="#FFFFFF" d="M95.9,143.7c0,1.1-1.6,1.1-1.6,0S95.9,142.6,95.9,143.7z"/>
<path fill="#FFFFFF" d="M149.2,156.3c0,0.4-0.7,0.5-0.7,0C148.5,155.9,149.2,155.9,149.2,156.3z"/>
<path fill="#FFFFFF" d="M98.3,154.8c0,0.4-0.7,0.5-0.7,0C97.6,154.4,98.3,154.4,98.3,154.8z"/>
<path fill="#FFFFFF" d="M102.8,145.8c0,0.4-0.7,0.5-0.7,0S102.8,145.3,102.8,145.8z"/>
<path fill="#FFFFFF" d="M61.6,126.4c0,0.4-0.7,0.5-0.7,0S61.6,125.9,61.6,126.4z"/>
<path fill="#FFFFFF" d="M87.1,114.6c0,0.4-0.7,0.5-0.7,0S87.1,114.2,87.1,114.6z"/>
<path fill="#FFFFFF" d="M50.4,80.1c0.5,0,0.5-0.6,0-0.6C50,79.4,49.9,80.1,50.4,80.1z"/>
<path fill="#FFFFFF" d="M70.6,94c-1.1,0-1,1.7,0,1.7C71.7,95.6,71.7,93.9,70.6,94C70.2,94,71.1,94,70.6,94z"/>
<path fill="#FFFFFF" d="M67.3,66.1c0-0.4,0.7-0.5,0.7,0C68.1,66.5,67.4,66.5,67.3,66.1z"/>
<path fill="#FFFFFF" d="M59.2,77c-0.5,0-0.5,0.6,0,0.6C59.7,77.6,59.7,76.9,59.2,77C59.1,77,59.4,77,59.2,77z"/>
<path fill="#FFFFFF" d="M38.1,72.8c-0.5,0-0.5,0.6,0,0.6C38.5,73.5,38.5,72.8,38.1,72.8z"/>
<path fill="#FFFFFF" d="M64.2,82.5c0-0.4,0.7-0.5,0.7,0C65,82.9,64.2,82.9,64.2,82.5z"/>
<path fill="#FFFFFF" d="M67.2,68.9c-0.4,0-0.4-0.7,0-0.7C67.7,68.2,67.7,68.9,67.2,68.9z"/>
<path fill="#FFFFFF" d="M44.8,59.3c0,0.5,0.6,0.5,0.6,0C45.5,58.9,44.8,58.9,44.8,59.3z"/>
<path fill="#FFFFFF" d="M41,77.7c0,0.5,0.6,0.5,0.6,0C41.6,77.2,41,77.2,41,77.7z"/>
<path fill="#FFFFFF" d="M34,75.6c0,0.5,0.6,0.5,0.6,0C34.7,75.1,34.1,75.2,34,75.6C34,75.8,34,75.4,34,75.6z"/>
<path fill="#FFFFFF" d="M30.4,93.9c0-1.1-1.7-1.1-1.7,0C28.7,94.9,30.3,94.9,30.4,93.9C30.4,93.5,30.4,94.4,30.4,93.9z"/>
<path fill="#FFFFFF" d="M34.4,61c1.1-0.1,1-1.7-0.1-1.7C33.2,59.4,33.3,61.1,34.4,61z"/>
<path fill="#FFFFFF" d="M26.5,78.1c-0.5,0-0.5,0.6,0,0.6C26.9,78.7,26.9,78.1,26.5,78.1z"/>
<path fill="#FFFFFF" d="M42.7,96.8c1.1,0,1-1.7,0-1.7C41.6,95.1,41.6,96.8,42.7,96.8C43.2,96.8,42.3,96.8,42.7,96.8z"/>
<path fill="#FFFFFF" d="M38.5,89c0,0.4-0.7,0.5-0.7,0C37.8,88.6,38.5,88.5,38.5,89z"/>
<path fill="#FFFFFF" d="M61.7,114.6c0,0.4-0.7,0.5-0.7,0C60.9,114.2,61.7,114.2,61.7,114.6z"/>
<path fill="#FFFFFF" d="M72.3,131.3c0,0.4-0.7,0.5-0.7,0C71.5,130.9,72.3,130.9,72.3,131.3z"/>
<path fill="#FFFFFF" d="M98.2,167.2c0.5,0,0.5-0.7,0-0.6C97.7,166.5,97.7,167.2,98.2,167.2C98.4,167.2,98,167.2,98.2,167.2z"/>
<path fill="#FFFFFF" d="M118.8,144.1c0,0.4-0.7,0.5-0.7,0S118.8,143.6,118.8,144.1z"/>
<path fill="#FFFFFF" d="M136.4,129.1c0.5,0,0.5-0.6,0-0.6C136,128.5,136,129.1,136.4,129.1z"/>
<path fill="#FFFFFF" d="M187.2,66.7c0.5,0,0.5-0.6,0-0.6C186.8,66,186.8,66.7,187.2,66.7C187.4,66.7,187,66.7,187.2,66.7z"/>
<path fill="#FFFFFF" d="M62.8,168.6c0.5,0,0.5-0.6,0-0.6C62.3,167.9,62.3,168.6,62.8,168.6z"/>
<path fill="#FFFFFF" d="M131.4,123.6c0,0.4-0.7,0.5-0.7,0C130.7,123.1,131.4,123.1,131.4,123.6z"/>
<path fill="#FFFFFF" d="M70,98.8c0.1-1.1-1.6-1.1-1.6,0C68.3,99.8,70,99.8,70,98.8z"/>
<path fill="#FFFFFF" d="M78.7,158.9c0-1.1-1.7-1.1-1.7,0C77,159.9,78.6,159.9,78.7,158.9C78.7,158.4,78.6,159.3,78.7,158.9z"/>
<path fill="#FFFFFF" d="M67.9,144.1c0-0.5-0.6-0.5-0.6,0C67.3,144.5,67.9,144.5,67.9,144.1z"/>
<path fill="#FFFFFF" d="M126.8,140.9c0-0.5-0.6-0.5-0.6,0C126.1,141.4,126.8,141.4,126.8,140.9z"/>
<path fill="#FFFFFF" d="M65.9,119.4c0-0.5-0.6-0.5-0.6,0C65.3,119.9,65.9,119.9,65.9,119.4z"/>
<path fill="#FFFFFF" d="M115,131.5c0-0.5-0.6-0.5-0.6,0C114.4,132,115,132,115,131.5z"/>
<path fill="#FFFFFF" d="M125.7,156.8c0.1-1.1-1.6-1.1-1.6,0C124,157.8,125.7,157.9,125.7,156.8C125.7,156.4,125.7,157.3,125.7,156.8  z"/>
<path fill="#FFFFFF" d="M152.9,71.1c0-0.5-0.6-0.5-0.6,0C152.2,71.5,152.9,71.5,152.9,71.1z"/>
<path fill="#FFFFFF" d="M121.7,154.1c0-0.5-0.6-0.5-0.6,0C121,154.5,121.7,154.5,121.7,154.1z"/>
<path fill="#FFFFFF" d="M114.8,128c0-0.5-0.6-0.5-0.6,0C114.1,128.5,114.8,128.5,114.8,128z"/>
<path fill="#FFFFFF" d="M103.3,136.2c0-0.5-0.6-0.5-0.6,0C102.7,136.6,103.3,136.6,103.3,136.2z"/>
<path fill="#FFFFFF" d="M192.5,97.2c-0.3,0.1-0.3-0.3-0.1-0.5C192.7,96.4,193.1,96.7,192.5,97.2C192.5,97.2,192.7,97.1,192.5,97.2z"/>
<path fill="#FFFFFF" d="M57.1,167.7c0-0.5-0.6-0.5-0.6,0C56.4,168.1,57.1,168.1,57.1,167.7z"/>
<path fill="#FFFFFF" d="M100,130.2c1.1-0.1,1-1.7-0.1-1.7C98.8,128.6,98.9,130.2,100,130.2C100.4,130.2,99.5,130.2,100,130.2z"/>
<path fill="#FFFFFF" d="M112.2,137.7c1.1-0.1,1-1.7-0.1-1.7C111,136.1,111.1,137.7,112.2,137.7z"/>
<path fill="#FFFFFF" d="M108,150.7c0.5,0,0.4-0.6,0-0.6C107.5,150.1,107.6,150.7,108,150.7z"/>
<path fill="#FFFFFF" d="M99.8,155.1c0.5,0,0.4-0.6,0-0.6C99.3,154.5,99.4,155.1,99.8,155.1z"/>
<path fill="#FFFFFF" d="M100.6,162.1c0.1-1.1-1.6-1.1-1.6,0C98.9,163.1,100.5,163.2,100.6,162.1z"/>
<path fill="#FFFFFF" d="M160.6,81c0.1-1.1-1.6-1.1-1.6,0C158.9,82,160.5,82,160.6,81C160.6,80.6,160.5,81.4,160.6,81z"/>
<path fill="#FFFFFF" d="M189.9,86.5c0-0.5-0.6-0.5-0.6,0C189.3,87,189.9,87,189.9,86.5z"/>
<path fill="#FFFFFF" d="M124.1,106.3c-1.1-0.1-1.1,1.6-0.1,1.7C125.1,108,125.2,106.3,124.1,106.3z"/>
<path fill="#FFFFFF" d="M152.9,124c-0.4,0-0.5,0.6,0,0.6C153.3,124.7,153.4,124,152.9,124z"/>
<path fill="#FFFFFF" d="M149.5,134.6c0.5,0,0.5-0.6,0-0.6C149,134,149,134.6,149.5,134.6z"/>
<path fill="#FFFFFF" d="M186.8,97.6c0-1.1-1.7-1.1-1.6,0C185.2,98.7,186.8,98.7,186.8,97.6z"/>
<path fill="#FFFFFF" d="M185.8,142c0.4,0,0.5,0.7,0,0.7C185.4,142.8,185.4,142.1,185.8,142z"/>
<path fill="#FFFFFF" d="M178,147.2c0-1.1-1.7-1.1-1.6,0C176.4,148.3,178,148.3,178,147.2z"/>
<path fill="#FFFFFF" d="M168.2,156.9c0,1.1,1.7,1,1.7,0C169.9,155.9,168.2,155.9,168.2,156.9C168.2,157.4,168.2,156.5,168.2,156.9z"/>
<path fill="#FFFFFF" d="M159.3,137.8c-1.1,0-1.1-1.6,0-1.6C160.3,136.2,160.4,137.8,159.3,137.8z"/>
<path fill="#FFFFFF" d="M145.1,141c-0.4,0-0.5-0.7,0-0.7C145.5,140.2,145.5,141,145.1,141z"/>
<path fill="#FFFFFF" d="M153.3,129.4c-0.4,0-0.5-0.7,0-0.7C153.8,128.6,153.8,129.3,153.3,129.4z"/>
<path fill="#FFFFFF" d="M109.9,27.9c0,0.5,0.6,0.5,0.6,0C110.5,27.5,109.9,27.5,109.9,27.9z"/>
<path fill="#FFFFFF" d="M99.8,43.1c0.5,0,0.5-0.6,0-0.6C99.3,42.5,99.3,43.2,99.8,43.1C100,43.1,99.6,43.2,99.8,43.1z"/>
<path fill="#FFFFFF" d="M120.7,49c0.5,0,0.5-0.7,0-0.6C120.2,48.3,120.2,49,120.7,49z"/>
<path fill="#FFFFFF" d="M123.4,36.5c0.1-1.1-1.6-1.1-1.6,0C121.7,37.5,123.4,37.6,123.4,36.5C123.4,36.1,123.4,37,123.4,36.5z"/>
<path fill="#FFFFFF" d="M114.3,65.1c0-0.5-0.6-0.5-0.6,0C113.7,65.6,114.3,65.6,114.3,65.1z"/>
<path fill="#FFFFFF" d="M114.4,50.7c1.1,0,1,1.7,0,1.6S113.3,50.6,114.4,50.7z"/>
<path fill="#FFFFFF" d="M103.5,51.5c0.1-1.1-1.6-1.1-1.6,0C101.9,52.5,103.5,52.6,103.5,51.5C103.6,51,103.5,52,103.5,51.5z"/>
<path fill="#FFFFFF" d="M99.8,56.6c0-0.5-0.6-0.5-0.6,0C99.2,57.1,99.8,57.1,99.8,56.6z"/>
<path fill="#FFFFFF" d="M112.6,59.7c0.4,0,0.4,0.7,0,0.7C112.1,60.5,112.1,59.7,112.6,59.7z"/>
<path fill="#FFFFFF" d="M91.1,60.6c1.1,0,1-1.7,0-1.7C90,59,90,60.6,91.1,60.6z"/>
<path fill="#FFFFFF" d="M88.6,53.9c0,0.5,0.7,0.5,0.6,0C89.2,53.5,88.6,53.5,88.6,53.9z"/>
<path fill="#FFFFFF" d="M135.6,146.5c-0.4,0-0.5-0.7,0-0.7C136,145.7,136,146.5,135.6,146.5z"/>
<path fill="#FFFFFF" d="M143.9,118.7c0,1.1,1.7,1,1.7,0C145.6,117.7,143.9,117.7,143.9,118.7C143.9,119.2,143.9,118.3,143.9,118.7z"/>
<path fill="#FFFFFF" d="M191.9,153.9c0,1.1,1.7,1,1.7,0C193.6,152.8,191.9,152.8,191.9,153.9C191.9,154.3,191.9,153.4,191.9,153.9z"/>
<path fill="#FFFFFF" d="M157,97.4c1.1,0.1,1.1-1.6,0-1.6C156,95.7,155.9,97.4,157,97.4C157.4,97.4,156.6,97.4,157,97.4z"/>
<path fill="#FFFFFF" d="M174.3,83.9c1.1,0.1,1.1-1.6,0-1.6C173.3,82.3,173.2,83.9,174.3,83.9C174.7,84,173.8,83.9,174.3,83.9z"/>
<path fill="#FFFFFF" d="M164.4,138.5c1.1,0,1.1-1.7,0-1.7C163.4,136.8,163.3,138.5,164.4,138.5C164.8,138.5,163.9,138.5,164.4,138.5  z"/>
<path fill="#FFFFFF" d="M189.2,109.3c0.5,0,0.5-0.6,0-0.6C188.7,108.6,188.7,109.3,189.2,109.3z"/>
<path fill="#FFFFFF" d="M125.6,149.4c0.5,0,0.5-0.6,0-0.6C125.1,148.7,125.1,149.4,125.6,149.4z"/>
<path fill="#FFFFFF" d="M167.5,70.9c0.5,0,0.5-0.6,0-0.6C167.1,70.3,167.1,70.9,167.5,70.9z"/>
<path fill="#FFFFFF" d="M147.8,109.6c0.5,0,0.5-0.6,0-0.6C147.3,108.9,147.3,109.6,147.8,109.6z"/>
<path fill="#FFFFFF" d="M176,53.7c0.5,0,0.5-0.6,0-0.6C175.5,53,175.6,53.6,176,53.7C176.2,53.7,175.8,53.6,176,53.7z"/>
<path fill="#FFFFFF" d="M183.5,168.6c-0.1-0.3,0.3-0.3,0.5-0.1C184.3,168.7,184,169.3,183.5,168.6  C183.5,168.5,183.6,168.7,183.5,168.6z"/>
<path fill="#FFFFFF" d="M165.8,142.7c0.5,0,0.5-0.6,0-0.6C165.3,142.1,165.4,142.7,165.8,142.7z"/>
<path fill="#FFFFFF" d="M72.7,154.1c0,0.5,0.6,0.4,0.6,0C73.4,153.6,72.7,153.6,72.7,154.1z"/>
<path fill="#FFFFFF" d="M165.4,56.1c0.1,1.1,1.7,1,1.7-0.1C167,55,165.3,55.1,165.4,56.1z"/>
<path fill="#FFFFFF" d="M194.7,112.4c0,0.5,0.6,0.4,0.6,0C195.3,111.9,194.7,112,194.7,112.4z"/>
<path fill="#FFFFFF" d="M78.2,148.5c0,0.5,0.7,0.5,0.6,0C78.8,148.1,78.2,148.1,78.2,148.5z"/>
<path fill="#FFFFFF" d="M180.9,157.7c1.1,0.1,1.1-1.6,0-1.6C179.9,156,179.8,157.7,180.9,157.7C181.3,157.8,180.4,157.7,180.9,157.7  z"/>
<path fill="#FFFFFF" d="M40.5,158.5c0.1-1.1-1.6-1.1-1.7-0.1C38.7,159.5,40.4,159.6,40.5,158.5z"/>
<path fill="#FFFFFF" d="M38.2,115.6c0-0.4-0.6-0.5-0.6,0C37.6,116,38.2,116.1,38.2,115.6z"/>
<path fill="#FFFFFF" d="M149.3,160.6c0-0.4-0.6-0.5-0.6,0C148.6,161,149.3,161.1,149.3,160.6z"/>
</svg>
